Jinko-Bold-install.ufo
<glyph name="numbersign" format="1">
  <advance width="1504"/>
  <unicode hex="0023"/>
  <outline>
    <contour>
      <point x="917" y="897" type="line"/>
      <point x="846" y="589" type="line"/>
      <point x="601" y="589" type="line"/>
      <point x="673" y="897" type="line"/>
    </contour>
    <contour>
      <point x="1435" y="895" type="line"/>
      <point x="1435" y="1117" type="line"/>
      <point x="1213" y="1117" type="line"/>
      <point x="1291" y="1479" type="line"/>
      <point x="1042" y="1479" type="line"/>
      <point x="964" y="1117" type="line"/>
      <point x="725" y="1117" type="line"/>
      <point x="802" y="1479" type="line"/>
      <point x="553" y="1479" type="line"/>
      <point x="476" y="1117" type="line"/>
      <point x="172" y="1117" type="line"/>
      <point x="172" y="895" type="line"/>
      <point x="426" y="895" type="line"/>
      <point x="355" y="591" type="line"/>
      <point x="69" y="591" type="line"/>
      <point x="69" y="369" type="line"/>
      <point x="305" y="369" type="line"/>
      <point x="225" y="-2" type="line"/>
      <point x="472" y="-2" type="line"/>
      <point x="551" y="369" type="line"/>
      <point x="793" y="369" type="line"/>
      <point x="714" y="-2" type="line"/>
      <point x="958" y="-2" type="line"/>
      <point x="1039" y="369" type="line"/>
      <point x="1334" y="369" type="line"/>
      <point x="1334" y="591" type="line"/>
      <point x="1089" y="591" type="line"/>
      <point x="1161" y="895" type="line"/>
    </contour>
  </outline>
</glyph>
<glyph name="dollar" format="1">
  <advance width="1244"/>
  <unicode hex="0024"/>
  <outline>
    <contour>
      <point x="550" y="879" type="line"/>
      <point x="445" y="906"/>
      <point x="435" y="945"/>
      <point x="435" y="1001" type="curve" smooth="yes"/>
      <point x="435" y="1082"/>
      <point x="491" y="1122"/>
      <point x="550" y="1128" type="curve"/>
    </contour>
    <contour>
      <point x="822" y="410" type="curve" smooth="yes"/>
      <point x="822" y="327"/>
      <point x="769" y="280"/>
      <point x="689" y="266" type="curve"/>
      <point x="689" y="543" type="line"/>
      <point x="787" y="526"/>
      <point x="822" y="470"/>
    </contour>
    <contour>
      <point x="1186" y="437" type="curve" smooth="yes"/>
      <point x="1186" y="681"/>
      <point x="1034" y="791"/>
      <point x="695" y="858" type="curve"/>
      <point x="695" y="1129" type="line"/>
      <point x="810" y="1123"/>
      <point x="912" y="1100"/>
      <point x="994" y="1052" type="curve"/>
      <point x="1012" y="1047"/>
      <point x="1028" y="1042"/>
      <point x="1046" y="1035" type="curve"/>
      <point x="1089" y="1299" type="line"/>
      <point x="1003" y="1352"/>
      <point x="820" y="1395"/>
      <point x="700" y="1398" type="curve"/>
      <point x="700" y="1589" type="line"/>
      <point x="538" y="1589" type="line"/>
      <point x="538" y="1397" type="line"/>
      <point x="251" y="1366"/>
      <point x="76" y="1211"/>
      <point x="76" y="999" type="curve" smooth="yes"/>
      <point x="76" y="692"/>
      <point x="321" y="614"/>
      <point x="542" y="564" type="curve"/>
      <point x="542" y="265" type="line"/>
      <point x="413" y="271"/>
      <point x="232" y="328"/>
      <point x="177" y="368" type="curve"/>
      <point x="161" y="374"/>
      <point x="146" y="381"/>
      <point x="131" y="387" type="curve"/>
      <point x="79" y="123" type="line"/>
      <point x="179" y="52"/>
      <point x="400" y="-6"/>
      <point x="538" y="-7" type="curve"/>
      <point x="538" y="-318" type="line"/>
      <point x="700" y="-318" type="line"/>
      <point x="700" y="-4" type="line"/>
      <point x="998" y="15"/>
      <point x="1186" y="209"/>
    </contour>
  </outline>
</glyph>
<glyph name="percent" format="1">
  <advance width="2136"/>
  <unicode hex="0025"/>
  <outline>
    <contour>
      <point x="485" y="840" type="curve" smooth="yes"/>
      <point x="386.404" y="840"/>
      <point x="340.12" y="946.744"/>
      <point x="340.12" y="1055.67" type="curve" smooth="yes"/>
      <point x="340.12" y="1169.15"/>
      <point x="390.352" y="1285"/>
      <point x="484" y="1285" type="curve" smooth="yes"/>
      <point x="581.753" y="1285"/>
      <point x="626.945" y="1179.51"/>
      <point x="626.945" y="1071.25" type="curve" smooth="yes"/>
      <point x="626.945" y="957.16"/>
      <point x="576.755" y="840"/>
    </contour>
    <contour>
      <point x="485" y="1484" type="curve"/>
      <point x="225.462" y="1481.02"/>
      <point x="95.7518" y="1269.56"/>
      <point x="95.7518" y="1058.95" type="curve" smooth="yes"/>
      <point x="95.7518" y="848.554"/>
      <point x="225.207" y="639"/>
      <point x="484" y="639" type="curve" smooth="yes"/>
      <point x="736.262" y="639"/>
      <point x="867.696" y="855.636"/>
      <point x="867.696" y="1069.53" type="curve" smooth="yes"/>
      <point x="867.696" y="1277.54"/>
      <point x="743.383" y="1482.97"/>
    </contour>
    <contour>
      <point x="1646" y="643" type="curve"/>
      <point x="1744.24" y="643"/>
      <point x="1791.28" y="533.649"/>
      <point x="1791.28" y="423.24" type="curve" smooth="yes"/>
      <point x="1791.28" y="310.67"/>
      <point x="1742.38" y="197"/>
      <point x="1649" y="197" type="curve" smooth="yes"/>
      <point x="1550.78" y="197"/>
      <point x="1505.53" y="301.789"/>
      <point x="1505.53" y="409.787" type="curve" smooth="yes"/>
      <point x="1505.53" y="523.091"/>
      <point x="1555.33" y="639.927"/>
    </contour>
    <contour>
      <point x="1649" y="841" type="curve"/>
      <point x="1390.1" y="838.024"/>
      <point x="1260.56" y="626.676"/>
      <point x="1260.56" y="416.12" type="curve" smooth="yes"/>
      <point x="1260.56" y="205.664"/>
      <point x="1389.98" y="-4"/>
      <point x="1649" y="-4" type="curve" smooth="yes"/>
      <point x="1900.38" y="-4"/>
      <point x="2031.81" y="213.35"/>
      <point x="2031.81" y="427.584" type="curve" smooth="yes"/>
      <point x="2031.81" y="635.763"/>
      <point x="1907.71" y="841"/>
    </contour>
    <contour>
      <point x="807" y="0" type="line"/>
      <point x="1583" y="1479" type="line"/>
      <point x="1326" y="1479" type="line"/>
      <point x="550" y="0" type="line"/>
    </contour>
  </outline>
</glyph>
<glyph name="slash" format="1">
  <advance width="1126"/>
  <unicode hex="002F"/>
  <outline>
    <contour>
      <point x="959" y="1527" type="line"/>
      <point x="672" y="1527" type="line"/>
      <point x="131" y="-218" type="line"/>
      <point x="416" y="-218" type="line"/>
    </contour>
  </outline>
</glyph>
<glyph name="zero" format="1">
  <advance width="1442"/>
  <unicode hex="0030"/>
  <outline>
    <contour>
      <point x="722" y="226" type="curve" smooth="yes"/>
      <point x="549" y="226"/>
      <point x="526" y="408"/>
      <point x="526" y="741" type="curve" smooth="yes"/>
      <point x="526" y="1062"/>
      <point x="555" y="1222"/>
      <point x="722" y="1222" type="curve" smooth="yes"/>
      <point x="888" y="1222"/>
      <point x="917" y="1062"/>
      <point x="917" y="741" type="curve" smooth="yes"/>
      <point x="917" y="408"/>
      <point x="894" y="226"/>
    </contour>
    <contour>
      <point x="722" y="-24" type="curve" smooth="yes"/>
      <point x="1035" y="-24"/>
      <point x="1229" y="127"/>
      <point x="1275" y="410" type="curve" smooth="yes"/>
      <point x="1290" y="497"/>
      <point x="1297" y="595"/>
      <point x="1297" y="701" type="curve" smooth="yes"/>
      <point x="1297" y="830"/>
      <point x="1290" y="952"/>
      <point x="1275" y="1065" type="curve"/>
      <point x="1230" y="1344"/>
      <point x="1038" y="1502"/>
      <point x="722" y="1502" type="curve" smooth="yes"/>
      <point x="405" y="1502"/>
      <point x="213" y="1344"/>
      <point x="168" y="1065" type="curve" smooth="yes"/>
      <point x="153" y="978"/>
      <point x="146" y="882"/>
      <point x="146" y="779" type="curve" smooth="yes"/>
      <point x="146" y="647"/>
      <point x="152" y="523"/>
      <point x="168" y="410" type="curve"/>
      <point x="213" y="127"/>
      <point x="407" y="-24"/>
    </contour>
  </outline>
</glyph>
<glyph name="two" format="1">
  <advance width="1244"/>
  <unicode hex="0032"/>
  <outline>
    <contour>
      <point x="1196" y="0" type="line"/>
      <point x="1196" y="284" type="line"/>
      <point x="612" y="284" type="line"/>
      <point x="810" y="438"/>
      <point x="950.215" y="603.224"/>
      <point x="1060" y="774" type="curve" smooth="yes"/>
      <point x="1121.22" y="869.224"/>
      <point x="1149" y="966"/>
      <point x="1149" y="1053" type="curve" smooth="yes"/>
      <point x="1149" y="1327"/>
      <point x="958" y="1502"/>
      <point x="613" y="1502" type="curve" smooth="yes"/>
      <point x="443.703" y="1502"/>
      <point x="224.243" y="1434"/>
      <point x="149" y="1368" type="curve"/>
      <point x="225" y="1101" type="line"/>
      <point x="280.216" y="1131.2"/>
      <point x="439.413" y="1198.56"/>
      <point x="571.088" y="1198.56" type="curve" smooth="yes"/>
      <point x="677.91" y="1198.56"/>
      <point x="766.555" y="1154.14"/>
      <point x="767.003" y="1009.97" type="curve" smooth="yes"/>
      <point x="767.003" y="906.137"/>
      <point x="669.683" y="775.63"/>
      <point x="574" y="664" type="curve" smooth="yes"/>
      <point x="459" y="531"/>
      <point x="309" y="392"/>
      <point x="125" y="235" type="curve"/>
      <point x="125" y="0" type="line"/>
    </contour>
  </outline>
</glyph>
<glyph name="four" format="1">
  <advance width="1245"/>
  <unicode hex="0034"/>
  <outline>
    <contour>
      <point x="25" y="217" type="line"/>
      <point x="633" y="217" type="line"/>
      <point x="633" y="0" type="line"/>
      <point x="842" y="0" type="line"/>
      <point x="842" y="217" type="line"/>
      <point x="958" y="217" type="line"/>
      <point x="958" y="414" type="line"/>
      <point x="842" y="414" type="line"/>
      <point x="842" y="834" type="line"/>
      <point x="633" y="834" type="line"/>
      <point x="633" y="414" type="line"/>
      <point x="252" y="414" type="line"/>
      <point x="745" y="1458" type="line"/>
      <point x="512" y="1458" type="line"/>
      <point x="25" y="414" type="line"/>
    </contour>
  </outline>
</glyph>
<glyph name="six" format="1">
  <advance width="1244"/>
  <unicode hex="0036"/>
  <outline>
    <contour>
      <point x="445.199" y="476.715" type="curve" smooth="yes"/>
      <point x="445.199" y="602.585"/>
      <point x="451.53" y="696.394"/>
      <point x="633.439" y="696.394" type="curve" smooth="yes"/>
      <point x="736.124" y="696.394"/>
      <point x="812" y="642.166"/>
      <point x="812" y="482" type="curve" smooth="yes"/>
      <point x="812" y="328.947"/>
      <point x="784.243" y="232.97"/>
      <point x="625.499" y="232.97" type="curve" smooth="yes"/>
      <point x="501.722" y="232.97"/>
      <point x="445.199" y="340.311"/>
    </contour>
    <contour>
      <point x="1183" y="495" type="curve" smooth="yes"/>
      <point x="1183" y="801.1"/>
      <point x="1025.35" y="958.883"/>
      <point x="771.743" y="958.883" type="curve" smooth="yes"/>
      <point x="676.637" y="958.883"/>
      <point x="589.794" y="927.056"/>
      <point x="520" y="886" type="curve"/>
      <point x="586.451" y="1124.28"/>
      <point x="768.985" y="1194.04"/>
      <point x="1047" y="1220" type="curve"/>
      <point x="987" y="1478" type="line"/>
      <point x="394.911" y="1443.9"/>
      <point x="87.432" y="1139.22"/>
      <point x="87.432" y="557.067" type="curve" smooth="yes"/>
      <point x="87.432" y="186.338"/>
      <point x="302.205" y="-24"/>
      <point x="637" y="-24" type="curve" smooth="yes"/>
      <point x="967" y="-24"/>
      <point x="1183" y="171"/>
    </contour>
  </outline>
</glyph>
<glyph name="eight" format="1">
  <advance width="1432"/>
  <unicode hex="0038"/>
  <outline>
    <contour>
      <point x="891" y="1077" type="curve" smooth="yes"/>
      <point x="891" y="986"/>
      <point x="846" y="932"/>
      <point x="795" y="892" type="curve"/>
      <point x="619" y="950"/>
      <point x="547" y="972"/>
      <point x="547" y="1096" type="curve" smooth="yes"/>
      <point x="547" y="1181"/>
      <point x="622" y="1240"/>
      <point x="718" y="1240" type="curve" smooth="yes"/>
      <point x="821" y="1240"/>
      <point x="891" y="1177"/>
    </contour>
    <contour>
      <point x="921" y="409" type="curve" smooth="yes"/>
      <point x="921" y="292"/>
      <point x="803" y="241"/>
      <point x="729" y="241" type="curve" smooth="yes"/>
      <point x="600" y="241"/>
      <point x="506" y="323"/>
      <point x="506" y="450" type="curve" smooth="yes"/>
      <point x="506" y="543"/>
      <point x="570" y="619"/>
      <point x="630" y="649" type="curve"/>
      <point x="917.166" y="617.87"/>
      <point x="921" y="466.495"/>
    </contour>
    <contour>
      <point x="1295" y="420" type="curve" smooth="yes"/>
      <point x="1295" y="585"/>
      <point x="1215" y="715"/>
      <point x="1037" y="794" type="curve"/>
      <point x="1195.89" y="867.153"/>
      <point x="1257.19" y="1045.05"/>
      <point x="1253" y="1154" type="curve"/>
      <point x="1236" y="1351"/>
      <point x="1064" y="1505"/>
      <point x="717" y="1505" type="curve" smooth="yes"/>
      <point x="365" y="1505"/>
      <point x="173" y="1310"/>
      <point x="173" y="1094" type="curve" smooth="yes"/>
      <point x="173" y="985.988"/>
      <point x="226.134" y="829.133"/>
      <point x="385" y="746" type="curve"/>
      <point x="223" y="672"/>
      <point x="136" y="569"/>
      <point x="136" y="410" type="curve" smooth="yes"/>
      <point x="136" y="163"/>
      <point x="327" y="-26"/>
      <point x="714" y="-26" type="curve" smooth="yes"/>
      <point x="1077" y="-26"/>
      <point x="1295" y="162"/>
    </contour>
  </outline>
</glyph>
<glyph name="nine" format="1">
  <advance width="1245"/>
  <unicode hex="0039"/>
  <outline>
    <contour>
      <point x="786" y="933" type="curve" smooth="yes"/>
      <point x="786" y="878"/>
      <point x="779" y="835"/>
      <point x="771" y="824" type="curve"/>
      <point x="767" y="809"/>
      <point x="723" y="780"/>
      <point x="646" y="780" type="curve" smooth="yes"/>
      <point x="540" y="780"/>
      <point x="439" y="826"/>
      <point x="439" y="1003" type="curve" smooth="yes"/>
      <point x="439" y="1185"/>
      <point x="546" y="1242"/>
      <point x="607" y="1242" type="curve" smooth="yes"/>
      <point x="721" y="1242"/>
      <point x="786" y="1144"/>
    </contour>
    <contour>
      <point x="1132" y="673" type="curve"/>
      <point x="1152" y="735"/>
      <point x="1161" y="805"/>
      <point x="1162" y="877" type="curve" smooth="yes"/>
      <point x="1169" y="1291"/>
      <point x="953" y="1502"/>
      <point x="611" y="1502" type="curve" smooth="yes"/>
      <point x="281" y="1502"/>
      <point x="60" y="1300"/>
      <point x="60" y="982" type="curve" smooth="yes"/>
      <point x="60" y="755"/>
      <point x="150" y="623"/>
      <point x="275" y="562" type="curve"/>
      <point x="305" y="549"/>
      <point x="336" y="540"/>
      <point x="369" y="534" type="curve"/>
      <point x="399.78" y="526.305"/>
      <point x="435.25" y="520"/>
      <point x="475" y="520" type="curve" smooth="yes"/>
      <point x="588" y="520"/>
      <point x="643" y="549"/>
      <point x="723" y="593" type="curve"/>
      <point x="673" y="390"/>
      <point x="544" y="299"/>
      <point x="407" y="246" type="curve"/>
      <point x="311" y="235"/>
      <point x="265" y="241"/>
      <point x="235" y="244" type="curve"/>
      <point x="194" y="238" type="line"/>
      <point x="216" y="160"/>
      <point x="235" y="81"/>
      <point x="253" y="0" type="curve"/>
      <point x="260" y="8"/>
      <point x="383" y="-2"/>
      <point x="441" y="5" type="curve"/>
      <point x="837" y="75"/>
      <point x="1049" y="327"/>
    </contour>
  </outline>
</glyph>
<glyph name="semicolon" format="1">
  <advance width="635"/>
  <unicode hex="003B"/>
  <outline>
    <contour>
      <point x="531" y="358" type="line"/>
      <point x="174" y="358" type="line"/>
      <point x="31" y="-293" type="line"/>
      <point x="213" y="-279" type="line"/>
      <point x="275" y="-179"/>
      <point x="337" y="-79"/>
      <point x="400" y="22" type="curve"/>
    </contour>
    <contour>
      <point x="495" y="608" type="curve"/>
      <point x="492" y="684"/>
      <point x="491" y="760"/>
      <point x="491" y="835" type="curve" smooth="yes"/>
      <point x="491" y="878"/>
      <point x="491" y="921"/>
      <point x="492" y="964" type="curve"/>
      <point x="374" y="964"/>
      <point x="256" y="963"/>
      <point x="139" y="963" type="curve"/>
      <point x="142" y="884"/>
      <point x="143" y="811"/>
      <point x="143" y="735" type="curve" smooth="yes"/>
      <point x="143" y="692"/>
      <point x="142" y="649"/>
      <point x="142" y="607" type="curve"/>
      <point x="260" y="607"/>
      <point x="378" y="608"/>
    </contour>
  </outline>
</glyph>
<glyph name="greater" format="1">
  <advance width="1588"/>
  <unicode hex="003E"/>
  <outline>
    <contour>
      <point x="1452" y="499" type="line"/>
      <point x="1452" y="719" type="line"/>
      <point x="161" y="1234" type="line"/>
      <point x="161" y="970" type="line"/>
      <point x="1082" y="610" type="line"/>
      <point x="161" y="249" type="line"/>
      <point x="161" y="-15" type="line"/>
    </contour>
  </outline>
</glyph>
<glyph name="B" format="1">
  <advance width="1408"/>
  <unicode hex="0042"/>
  <outline>
    <contour>
      <point x="890" y="1048" type="curve" smooth="yes"/>
      <point x="890" y="906"/>
      <point x="800" y="884"/>
      <point x="579" y="884" type="curve" smooth="yes"/>
      <point x="530" y="884" type="line"/>
      <point x="530" y="1206" type="line"/>
      <point x="591" y="1206" type="line" smooth="yes"/>
      <point x="799.119" y="1206"/>
      <point x="890" y="1184"/>
    </contour>
    <contour>
      <point x="953" y="454" type="curve" smooth="yes"/>
      <point x="953" y="329"/>
      <point x="849" y="277"/>
      <point x="714" y="277" type="curve" smooth="yes"/>
      <point x="530" y="277" type="line"/>
      <point x="530" y="627" type="line"/>
      <point x="597" y="627" type="line" smooth="yes"/>
      <point x="786.527" y="627"/>
      <point x="953" y="635.829"/>
    </contour>
    <contour>
      <point x="1347" y="441" type="curve" smooth="yes"/>
      <point x="1347" y="623"/>
      <point x="1235" y="748"/>
      <point x="1061" y="785" type="curve"/>
      <point x="1061" y="792" type="line"/>
      <point x="1211" y="851"/>
      <point x="1278" y="977"/>
      <point x="1278" y="1113" type="curve" smooth="yes"/>
      <point x="1278" y="1465.85"/>
      <point x="1007.62" y="1479"/>
      <point x="555" y="1479" type="curve" smooth="yes"/>
      <point x="147" y="1479" type="line"/>
      <point x="147" y="0" type="line"/>
      <point x="750" y="0" type="line" smooth="yes"/>
      <point x="1086.44" y="0"/>
      <point x="1347" y="117.867"/>
    </contour>
  </outline>
</glyph>
<glyph name="D" format="1">
  <advance width="1513"/>
  <unicode hex="0044"/>
  <outline>
    <contour>
      <point x="1053" y="737" type="curve" smooth="yes"/>
      <point x="1053" y="1052"/>
      <point x="932" y="1198"/>
      <point x="708" y="1198" type="curve" smooth="yes"/>
      <point x="532" y="1198" type="line"/>
      <point x="532" y="283" type="line"/>
      <point x="645" y="283" type="line" smooth="yes"/>
      <point x="932.281" y="283"/>
      <point x="1053" y="397.997"/>
    </contour>
    <contour>
      <point x="1445" y="738" type="curve" smooth="yes"/>
      <point x="1445" y="182.307"/>
      <point x="1122.67" y="0"/>
      <point x="607" y="0" type="curve" smooth="yes"/>
      <point x="147" y="0" type="line"/>
      <point x="147" y="1480" type="line"/>
      <point x="601" y="1480" type="line" smooth="yes"/>
      <point x="1126" y="1480"/>
      <point x="1445" y="1289.89"/>
    </contour>
  </outline>
</glyph>
<glyph name="E" format="1">
  <advance width="1262"/>
  <unicode hex="0045"/>
  <outline>
    <contour>
      <point x="1179" y="0" type="line"/>
      <point x="1179" y="286" type="line"/>
      <point x="530" y="286" type="line"/>
      <point x="530" y="635" type="line"/>
      <point x="1094" y="635" type="line"/>
      <point x="1094" y="917" type="line"/>
      <point x="530" y="917" type="line"/>
      <point x="530" y="1193" type="line"/>
      <point x="1180" y="1193" type="line"/>
      <point x="1180" y="1479" type="line"/>
      <point x="147" y="1479" type="line"/>
      <point x="147" y="0" type="line"/>
    </contour>
  </outline>
</glyph>
<glyph name="F" format="1">
  <advance width="1212"/>
  <unicode hex="0046"/>
  <outline>
    <contour>
      <point x="1178" y="1193" type="line"/>
      <point x="1178" y="1479" type="line"/>
      <point x="147" y="1479" type="line"/>
      <point x="147" y="0" type="line"/>
      <point x="530" y="0" type="line"/>
      <point x="530" y="616" type="line"/>
      <point x="1121" y="616" type="line"/>
      <point x="1121" y="896" type="line"/>
      <point x="530" y="896" type="line"/>
      <point x="530" y="1193" type="line"/>
    </contour>
  </outline>
</glyph>
<glyph name="H" format="1">
  <advance width="1550"/>
  <unicode hex="0048"/>
  <outline>
    <contour>
      <point x="1403" y="0" type="line"/>
      <point x="1403" y="1479" type="line"/>
      <point x="1018" y="1479" type="line"/>
      <point x="1018" y="916" type="line"/>
      <point x="532" y="916" type="line"/>
      <point x="532" y="1479" type="line"/>
      <point x="147" y="1479" type="line"/>
      <point x="147" y="0" type="line"/>
      <point x="532" y="0" type="line"/>
      <point x="532" y="635" type="line"/>
      <point x="1018" y="635" type="line"/>
      <point x="1018" y="0" type="line"/>
    </contour>
  </outline>
</glyph>
<glyph name="I" format="1">
  <advance width="908"/>
  <unicode hex="0049"/>
  <outline>
    <contour>
      <point x="799" y="0" type="line"/>
      <point x="799" y="256" type="line"/>
      <point x="646" y="256" type="line"/>
      <point x="646" y="1222" type="line"/>
      <point x="799" y="1222" type="line"/>
      <point x="799" y="1479" type="line"/>
      <point x="109" y="1479" type="line"/>
      <point x="109" y="1222" type="line"/>
      <point x="262" y="1222" type="line"/>
      <point x="262" y="256" type="line"/>
      <point x="109" y="256" type="line"/>
      <point x="109" y="0" type="line"/>
    </contour>
  </outline>
</glyph>
<glyph name="K" format="1">
  <advance width="1440"/>
  <unicode hex="004B"/>
  <outline>
    <contour>
      <point x="1476" y="0" type="line"/>
      <point x="955" y="832" type="line"/>
      <point x="1447" y="1479" type="line"/>
      <point x="1004" y="1479" type="line"/>
      <point x="892" y="1321"/>
      <point x="779" y="1163"/>
      <point x="668" y="1005" type="curve"/>
      <point x="532" y="816" type="line"/>
      <point x="531" y="816" type="line"/>
      <point x="531" y="1479" type="line"/>
      <point x="146" y="1479" type="line"/>
      <point x="146" y="0" type="line"/>
      <point x="531" y="0" type="line"/>
      <point x="531" y="477" type="line"/>
      <point x="653" y="627" type="line"/>
      <point x="723" y="505" type="line"/>
      <point x="822" y="337"/>
      <point x="921" y="169"/>
      <point x="1019" y="0" type="curve"/>
    </contour>
  </outline>
</glyph>
<glyph name="M" format="1">
  <advance width="1829"/>
  <unicode hex="004D"/>
  <outline>
    <contour>
      <point x="1682" y="0" type="line"/>
      <point x="1682" y="1479" type="line"/>
      <point x="1272" y="1479" type="line"/>
      <point x="1017" y="922" type="line" smooth="yes"/>
      <point x="1017" y="924" type="line" smooth="yes"/>
      <point x="915" y="698" type="line"/>
      <point x="559" y="1479" type="line"/>
      <point x="147" y="1479" type="line"/>
      <point x="147" y="0" type="line"/>
      <point x="515" y="0" type="line"/>
      <point x="515" y="701" type="line" smooth="yes"/>
      <point x="515" y="749"/>
      <point x="514" y="837"/>
      <point x="516" y="876" type="curve"/>
      <point x="546" y="804" type="line"/>
      <point x="620.159" y="634.493"/>
      <point x="695.169" y="461.352"/>
      <point x="768" y="291" type="curve"/>
      <point x="1046" y="291" type="line"/>
      <point x="1130" y="486"/>
      <point x="1213" y="679"/>
      <point x="1298" y="876" type="curve"/>
      <point x="1301" y="837"/>
      <point x="1300" y="749"/>
      <point x="1300" y="701" type="curve" smooth="yes"/>
      <point x="1300" y="0" type="line"/>
    </contour>
  </outline>
</glyph>
<glyph name="N" format="1">
  <advance width="1591"/>
  <unicode hex="004E"/>
  <outline>
    <contour>
      <point x="1447" y="0" type="line"/>
      <point x="1447" y="1479" type="line"/>
      <point x="1091" y="1479" type="line"/>
      <point x="1091" y="659" type="line"/>
      <point x="1060" y="698"/>
      <point x="1008" y="789"/>
      <point x="978" y="839" type="curve" smooth="yes"/>
      <point x="579" y="1479" type="line"/>
      <point x="147" y="1479" type="line"/>
      <point x="147" y="0" type="line"/>
      <point x="504" y="0" type="line"/>
      <point x="504" y="757" type="line" smooth="yes"/>
      <point x="504" y="809"/>
      <point x="503" y="917"/>
      <point x="506" y="960" type="curve"/>
      <point x="698" y="645"/>
      <point x="899" y="318"/>
      <point x="1094" y="0" type="curve"/>
    </contour>
  </outline>
</glyph>
<glyph name="V" format="1">
  <advance width="1345"/>
  <unicode hex="0056"/>
  <outline>
    <contour>
      <point x="1368" y="1479" type="line"/>
      <point x="977" y="1479" type="line"/>
      <point x="735" y="718" type="line"/>
      <point x="677" y="516" type="line" smooth="yes"/>
      <point x="675" y="516" type="line" smooth="yes"/>
      <point x="654" y="585" type="line" smooth="yes"/>
      <point x="637" y="641"/>
      <point x="620" y="697"/>
      <point x="602" y="753" type="curve"/>
      <point x="605" y="740"/>
      <point x="612" y="729"/>
      <point x="616" y="718" type="curve"/>
      <point x="536" y="972"/>
      <point x="455" y="1225"/>
      <point x="376" y="1479" type="curve"/>
      <point x="-23" y="1479" type="line"/>
      <point x="491" y="0" type="line"/>
      <point x="854" y="0" type="line"/>
    </contour>
  </outline>
</glyph>
<glyph name="W" format="1">
  <advance width="2070"/>
  <unicode hex="0057"/>
  <outline>
    <contour>
      <point x="2058" y="1479" type="line"/>
      <point x="1664" y="1479" type="line"/>
      <point x="1596" y="1166"/>
      <point x="1527" y="844"/>
      <point x="1461" y="535" type="curve"/>
      <point x="1444" y="585"/>
      <point x="1421" y="687"/>
      <point x="1406" y="747" type="curve" smooth="yes"/>
      <point x="1218" y="1479" type="line"/>
      <point x="860" y="1479" type="line"/>
      <point x="799" y="1251"/>
      <point x="737" y="1024"/>
      <point x="676" y="797" type="curve" smooth="yes"/>
      <point x="605" y="532" type="line" smooth="yes"/>
      <point x="603" y="532" type="line" smooth="yes"/>
      <point x="558" y="756" type="line" smooth="yes"/>
      <point x="509" y="998"/>
      <point x="461" y="1238"/>
      <point x="413" y="1479" type="curve"/>
      <point x="12" y="1479" type="line"/>
      <point x="395" y="0" type="line"/>
      <point x="794" y="0" type="line"/>
      <point x="1031" y="881" type="line"/>
      <point x="1085" y="715"/>
      <point x="1197" y="281"/>
      <point x="1274" y="0" type="curve"/>
      <point x="1672" y="0" type="line"/>
    </contour>
  </outline>
</glyph>
<glyph name="X" format="1">
  <advance width="1350"/>
  <unicode hex="0058"/>
  <outline>
    <contour>
      <point x="1363" y="1479" type="line"/>
      <point x="934" y="1479" type="line"/>
      <point x="774" y="1212" type="line" smooth="yes"/>
      <point x="776" y="1212" type="line"/>
      <point x="741" y="1154"/>
      <point x="712" y="1106"/>
      <point x="679" y="1052" type="curve"/>
      <point x="596" y="1195"/>
      <point x="512" y="1337"/>
      <point x="429" y="1479" type="curve"/>
      <point x="-14" y="1479" type="line"/>
      <point x="442" y="752" type="line"/>
      <point x="-38" y="0" type="line"/>
      <point x="390" y="0" type="line"/>
      <point x="552" y="272" type="line" smooth="yes"/>
      <point x="590" y="335"/>
      <point x="630" y="398"/>
      <point x="669" y="461" type="curve"/>
      <point x="699" y="412"/>
      <point x="731" y="359"/>
      <point x="762" y="309" type="curve"/>
      <point x="944" y="0" type="line"/>
      <point x="1388" y="0" type="line"/>
      <point x="907" y="763" type="line"/>
    </contour>
  </outline>
</glyph>
<glyph name="Y" format="1">
  <advance width="1337"/>
  <unicode hex="0059"/>
  <outline>
    <contour>
      <point x="1368" y="1479" type="line"/>
      <point x="946" y="1479" type="line"/>
      <point x="858" y="1300"/>
      <point x="769" y="1124"/>
      <point x="680" y="943" type="curve"/>
      <point x="585.409" y="1119.74"/>
      <point x="493.541" y="1299.21"/>
      <point x="402" y="1479" type="curve"/>
      <point x="-32" y="1479" type="line"/>
      <point x="482" y="596" type="line"/>
      <point x="482" y="0" type="line"/>
      <point x="863" y="0" type="line"/>
      <point x="863" y="608" type="line"/>
    </contour>
  </outline>
</glyph>
<glyph name="Z" format="1">
  <advance width="1215"/>
  <unicode hex="005A"/>
  <outline>
    <contour>
      <point x="1185" y="0" type="line"/>
      <point x="1185" y="286" type="line"/>
      <point x="516" y="286" type="line"/>
      <point x="1152" y="1208" type="line"/>
      <point x="1152" y="1479" type="line"/>
      <point x="75" y="1479" type="line"/>
      <point x="75" y="1198" type="line"/>
      <point x="679" y="1198" type="line"/>
      <point x="41" y="272" type="line"/>
      <point x="41" y="0" type="line"/>
    </contour>
  </outline>
</glyph>
<glyph name="a" format="1">
  <advance width="1204"/>
  <unicode hex="0061"/>
  <outline>
    <contour>
      <point x="750" y="503" type="curve"/>
      <point x="750" y="268"/>
      <point x="664" y="227"/>
      <point x="562" y="227" type="curve" smooth="yes"/>
      <point x="470" y="227"/>
      <point x="418" y="273"/>
      <point x="418" y="351" type="curve" smooth="yes"/>
      <point x="418" y="490"/>
      <point x="548" y="487"/>
    </contour>
    <contour>
      <point x="61" y="316" type="curve" smooth="yes"/>
      <point x="61" y="126.164"/>
      <point x="199.755" y="-19.7427"/>
      <point x="407.414" y="-19.7427" type="curve" smooth="yes"/>
      <point x="573.248" y="-19.7427"/>
      <point x="690.722" y="52.5362"/>
      <point x="748" y="148" type="curve"/>
      <point x="750" y="148" type="line"/>
      <point x="750" y="0" type="line"/>
      <point x="1108" y="0" type="line"/>
      <point x="1108" y="748" type="line" smooth="yes"/>
      <point x="1108" y="1005"/>
      <point x="934" y="1120"/>
      <point x="553" y="1120" type="curve" smooth="yes"/>
      <point x="387" y="1120"/>
      <point x="213" y="1082"/>
      <point x="142" y="1031" type="curve"/>
      <point x="201" y="790" type="line"/>
      <point x="307.494" y="832.257"/>
      <point x="430.305" y="862.177"/>
      <point x="536.974" y="862.177" type="curve" smooth="yes"/>
      <point x="715.32" y="862.177"/>
      <point x="750" y="818.489"/>
      <point x="750" y="695" type="curve"/>
      <point x="678" y="695"/>
      <point x="607" y="695"/>
      <point x="537" y="693" type="curve"/>
      <point x="250" y="679"/>
      <point x="61" y="564"/>
    </contour>
  </outline>
</glyph>
<glyph name="b" format="1">
  <advance width="1269"/>
  <unicode hex="0062"/>
  <outline>
    <contour>
      <point x="841" y="554" type="curve" smooth="yes"/>
      <point x="841" y="746"/>
      <point x="797" y="846"/>
      <point x="645" y="846" type="curve" smooth="yes"/>
      <point x="571.887" y="846"/>
      <point x="527.384" y="822"/>
      <point x="485" y="780" type="curve"/>
      <point x="485" y="277" type="line"/>
      <point x="511.875" y="261"/>
      <point x="566.7" y="254"/>
      <point x="614" y="254" type="curve" smooth="yes"/>
      <point x="793" y="254"/>
      <point x="841" y="376"/>
    </contour>
    <contour>
      <point x="808" y="1120" type="curve" smooth="yes"/>
      <point x="1108.07" y="1120"/>
      <point x="1207" y="900.079"/>
      <point x="1207" y="557" type="curve" smooth="yes"/>
      <point x="1207" y="226.125"/>
      <point x="1064.58" y="-22"/>
      <point x="768" y="-22" type="curve" smooth="yes"/>
      <point x="641" y="-22"/>
      <point x="568" y="16"/>
      <point x="485" y="88" type="curve"/>
      <point x="486" y="0" type="line"/>
      <point x="126" y="0" type="line"/>
      <point x="126" y="1521" type="line"/>
      <point x="485" y="1521" type="line"/>
      <point x="485" y="987" type="line"/>
      <point x="585" y="1067"/>
      <point x="674" y="1120"/>
    </contour>
  </outline>
</glyph>
<glyph name="c" format="1">
  <advance width="1022"/>
  <unicode hex="0063"/>
  <outline>
    <contour>
      <point x="676.085" y="234.856" type="curve" smooth="yes"/>
      <point x="529.571" y="234.856"/>
      <point x="410" y="313.688"/>
      <point x="410" y="544" type="curve" smooth="yes"/>
      <point x="410" y="772.464"/>
      <point x="536.9" y="864.1"/>
      <point x="689.512" y="864.1" type="curve" smooth="yes"/>
      <point x="782.436" y="864.1"/>
      <point x="894.6" y="819.24"/>
      <point x="988.676" y="745" type="curve"/>
      <point x="1043.68" y="1008.63" type="line"/>
      <point x="903.047" y="1087.97"/>
      <point x="765.664" y="1120"/>
      <point x="635" y="1120" type="curve" smooth="yes"/>
      <point x="342" y="1120"/>
      <point x="44" y="968"/>
      <point x="44" y="545" type="curve" smooth="yes"/>
      <point x="44" y="147"/>
      <point x="320" y="-25"/>
      <point x="644.9" y="-25" type="curve" smooth="yes"/>
      <point x="796.659" y="-25"/>
      <point x="932.307" y="22.6484"/>
      <point x="1045.68" y="85.1191" type="curve"/>
      <point x="990.676" y="348" type="line"/>
      <point x="905.904" y="278.479"/>
      <point x="806.363" y="234.856"/>
    </contour>
  </outline>
</glyph>
<glyph name="d" format="1">
  <advance width="1283"/>
  <unicode hex="0064"/>
  <outline>
    <contour>
      <point x="792" y="259" type="curve"/>
      <point x="792" y="801" type="line"/>
      <point x="714.427" y="840.019"/>
      <point x="652.764" y="857.695"/>
      <point x="604.063" y="857.695" type="curve" smooth="yes"/>
      <point x="471.558" y="857.695"/>
      <point x="435" y="726.848"/>
      <point x="435" y="539" type="curve" smooth="yes"/>
      <point x="435" y="364.317"/>
      <point x="499.359" y="237.021"/>
      <point x="661.521" y="237.021" type="curve" smooth="yes"/>
      <point x="699.505" y="237.021"/>
      <point x="742.855" y="244.005"/>
    </contour>
    <contour>
      <point x="70" y="559" type="curve" smooth="yes"/>
      <point x="70" y="905.834"/>
      <point x="194.342" y="1120"/>
      <point x="513" y="1120" type="curve" smooth="yes"/>
      <point x="630" y="1120"/>
      <point x="705" y="1077"/>
      <point x="792" y="1016" type="curve"/>
      <point x="792" y="1521" type="line"/>
      <point x="1151" y="1521" type="line"/>
      <point x="1151" y="0" type="line"/>
      <point x="792" y="0" type="line"/>
      <point x="792" y="82" type="line"/>
      <point x="708" y="14"/>
      <point x="636" y="-22"/>
      <point x="509" y="-22" type="curve" smooth="yes"/>
      <point x="215.51" y="-22"/>
      <point x="70" y="222.304"/>
    </contour>
  </outline>
</glyph>
<glyph name="g" format="1">
  <advance width="1264"/>
  <unicode hex="0067"/>
  <outline>
    <contour>
      <point x="57" y="571" type="curve" smooth="yes"/>
      <point x="57" y="900.381"/>
      <point x="197.573" y="1120"/>
      <point x="485" y="1120" type="curve" smooth="yes"/>
      <point x="600.058" y="1120"/>
      <point x="692.68" y="1079.8"/>
      <point x="771" y="968.673" type="curve"/>
      <point x="769" y="1096" type="line"/>
      <point x="1138" y="1096" type="line"/>
      <point x="1138" y="92" type="line" smooth="yes"/>
      <point x="1138" y="-301"/>
      <point x="870" y="-426"/>
      <point x="557" y="-426" type="curve" smooth="yes"/>
      <point x="397" y="-426"/>
      <point x="245" y="-384"/>
      <point x="143" y="-331" type="curve"/>
      <point x="202" y="-81" type="line"/>
      <point x="285.212" y="-118.823"/>
      <point x="403.673" y="-159"/>
      <point x="505" y="-159" type="curve" smooth="yes"/>
      <point x="726.05" y="-159"/>
      <point x="779" y="-78.3299"/>
      <point x="779" y="117" type="curve"/>
      <point x="711" y="54"/>
      <point x="601" y="7"/>
      <point x="507" y="7" type="curve" smooth="yes"/>
      <point x="169.433" y="7"/>
      <point x="57" y="195.081"/>
    </contour>
    <contour>
      <point x="422" y="577" type="curve" smooth="yes"/>
      <point x="422" y="357"/>
      <point x="468" y="264"/>
      <point x="622" y="264" type="curve" smooth="yes"/>
      <point x="680" y="264"/>
      <point x="730" y="287"/>
      <point x="771" y="316" type="curve"/>
      <point x="771" y="828" type="line"/>
      <point x="724.694" y="846.522"/>
      <point x="675.167" y="855.241"/>
      <point x="637.007" y="855.241" type="curve" smooth="yes"/>
      <point x="502.295" y="855.241"/>
      <point x="422" y="746.59"/>
    </contour>
  </outline>
</glyph>
<glyph name="k" format="1">
  <advance width="1233"/>
  <unicode hex="006B"/>
  <outline>
    <contour>
      <point x="1199" y="0" type="line"/>
      <point x="1200" y="83" type="line"/>
      <point x="855" y="649" type="line"/>
      <point x="1180" y="1049" type="line"/>
      <point x="1180" y="1096" type="line"/>
      <point x="796" y="1096" type="line"/>
      <point x="484" y="672" type="line"/>
      <point x="483" y="672" type="line"/>
      <point x="483" y="1521" type="line"/>
      <point x="123" y="1521" type="line"/>
      <point x="123" y="0" type="line"/>
      <point x="483" y="0" type="line"/>
      <point x="483" y="383" type="line"/>
      <point x="561" y="487" type="line"/>
      <point x="826" y="0" type="line"/>
    </contour>
  </outline>
</glyph>
<glyph name="n" format="1">
  <advance width="1294"/>
  <unicode hex="006E"/>
  <outline>
    <contour>
      <point x="816" y="0" type="line"/>
      <point x="1174" y="0" type="line"/>
      <point x="1174" y="735" type="line" smooth="yes"/>
      <point x="1174" y="996"/>
      <point x="994" y="1120"/>
      <point x="817" y="1120" type="curve" smooth="yes"/>
      <point x="663.661" y="1120"/>
      <point x="560.867" y="1026.46"/>
      <point x="484" y="897" type="curve"/>
      <point x="484" y="1096" type="line"/>
      <point x="126" y="1096" type="line"/>
      <point x="126" y="0" type="line"/>
      <point x="484" y="0" type="line"/>
      <point x="484" y="727" type="line" smooth="yes"/>
      <point x="484" y="805"/>
      <point x="573" y="826"/>
      <point x="640" y="826" type="curve" smooth="yes"/>
      <point x="788" y="826"/>
      <point x="816" y="733"/>
      <point x="816" y="552" type="curve" smooth="yes"/>
    </contour>
  </outline>
</glyph>
<glyph name="q" format="1">
  <advance width="1264"/>
  <unicode hex="0071"/>
  <outline>
    <contour>
      <point x="704" y="276" type="curve"/>
      <point x="680" y="259"/>
      <point x="648" y="250"/>
      <point x="624" y="250" type="curve" smooth="yes"/>
      <point x="461" y="250"/>
      <point x="422" y="352"/>
      <point x="422" y="544" type="curve" smooth="yes"/>
      <point x="422" y="723"/>
      <point x="476" y="852"/>
      <point x="651" y="852" type="curve" smooth="yes"/>
      <point x="727" y="852"/>
      <point x="779" y="787"/>
      <point x="778" y="738" type="curve"/>
      <point x="778" y="569"/>
      <point x="775" y="391"/>
    </contour>
    <contour>
      <point x="1138" y="-414" type="line"/>
      <point x="1138" y="1096" type="line"/>
      <point x="786" y="1096" type="line"/>
      <point x="776" y="1038" type="line"/>
      <point x="692" y="1089"/>
      <point x="614" y="1120"/>
      <point x="505" y="1120" type="curve" smooth="yes"/>
      <point x="350" y="1120"/>
      <point x="222" y="1044"/>
      <point x="144" y="921" type="curve"/>
      <point x="85" y="832"/>
      <point x="57" y="728"/>
      <point x="57" y="543" type="curve" smooth="yes"/>
      <point x="57" y="360"/>
      <point x="80" y="257"/>
      <point x="132" y="169" type="curve"/>
      <point x="200" y="48"/>
      <point x="313" y="-26"/>
      <point x="460" y="-26" type="curve" smooth="yes"/>
      <point x="582" y="-26"/>
      <point x="659" y="11"/>
      <point x="779" y="106" type="curve"/>
      <point x="779" y="-414" type="line"/>
    </contour>
  </outline>
</glyph>
<glyph name="s" format="1">
  <advance width="1071"/>
  <unicode hex="0073"/>
  <outline>
    <contour>
      <point x="666.655" y="304.895" type="curve" smooth="yes"/>
      <point x="666.655" y="242.38"/>
      <point x="575.112" y="220"/>
      <point x="493" y="220" type="curve" smooth="yes"/>
      <point x="284" y="220"/>
      <point x="159" y="320"/>
      <point x="109" y="363" type="curve"/>
      <point x="63" y="75" type="line"/>
      <point x="170" y="15"/>
      <point x="330" y="-25"/>
      <point x="489" y="-25" type="curve" smooth="yes"/>
      <point x="827" y="-25"/>
      <point x="1036" y="127"/>
      <point x="1036" y="344" type="curve" smooth="yes"/>
      <point x="1036" y="552"/>
      <point x="908" y="647"/>
      <point x="653" y="688" type="curve"/>
      <point x="458" y="717"/>
      <point x="426" y="732"/>
      <point x="426" y="785" type="curve" smooth="yes"/>
      <point x="426" y="838"/>
      <point x="491" y="875"/>
      <point x="595" y="875" type="curve" smooth="yes"/>
      <point x="744" y="875"/>
      <point x="855" y="810"/>
      <point x="928" y="760" type="curve"/>
      <point x="970" y="1037" type="line"/>
      <point x="872" y="1086"/>
      <point x="742" y="1121"/>
      <point x="575" y="1121" type="curve" smooth="yes"/>
      <point x="261" y="1121"/>
      <point x="61" y="967"/>
      <point x="61" y="760" type="curve" smooth="yes"/>
      <point x="61" y="555"/>
      <point x="199.519" y="455.964"/>
      <point x="420" y="414" type="curve" smooth="yes"/>
      <point x="513.316" y="396.239"/>
      <point x="666.655" y="390.074"/>
    </contour>
  </outline>
</glyph>
<glyph name="u" format="1">
  <advance width="1294"/>
  <unicode hex="0075"/>
  <outline>
    <contour>
      <point x="119" y="1096" type="line"/>
      <point x="119" y="361" type="line" smooth="yes"/>
      <point x="119" y="100"/>
      <point x="300" y="-24"/>
      <point x="477" y="-24" type="curve" smooth="yes"/>
      <point x="609" y="-24"/>
      <point x="738" y="40"/>
      <point x="807" y="160" type="curve" smooth="yes"/>
      <point x="809" y="160" type="line"/>
      <point x="809" y="0" type="line"/>
      <point x="1168" y="0" type="line"/>
      <point x="1168" y="1096" type="line"/>
      <point x="809" y="1096" type="line"/>
      <point x="809" y="336.918" type="line"/>
      <point x="765.703" y="291.425"/>
      <point x="713.115" y="270"/>
      <point x="653" y="270" type="curve" smooth="yes"/>
      <point x="506" y="270"/>
      <point x="481" y="363"/>
      <point x="481" y="544" type="curve" smooth="yes"/>
      <point x="481" y="1096" type="line"/>
    </contour>
  </outline>
</glyph>
<glyph name="v" format="1">
  <advance width="1127"/>
  <unicode hex="0076"/>
  <outline>
    <contour>
      <point x="1149" y="1096" type="line"/>
      <point x="779" y="1096" type="line"/>
      <point x="708.921" y="863.745"/>
      <point x="641.344" y="628.989"/>
      <point x="569" y="399" type="curve"/>
      <point x="567" y="399" type="line" smooth="yes"/>
      <point x="524" y="541" type="line" smooth="yes"/>
      <point x="467" y="727"/>
      <point x="413" y="909"/>
      <point x="355" y="1096" type="curve"/>
      <point x="-21" y="1096" type="line"/>
      <point x="375" y="0" type="line"/>
      <point x="751" y="0" type="line"/>
    </contour>
  </outline>
</glyph>
<glyph name="x" format="1">
  <advance width="1206"/>
  <unicode hex="0078"/>
  <outline>
    <contour>
      <point x="1219" y="0" type="line"/>
      <point x="818" y="558" type="line"/>
      <point x="1209" y="1096" type="line"/>
      <point x="792" y="1096" type="line"/>
      <point x="749" y="1028"/>
      <point x="705" y="960"/>
      <point x="662" y="892" type="curve" smooth="yes"/>
      <point x="603" y="801" type="line"/>
      <point x="583" y="834"/>
      <point x="560" y="867"/>
      <point x="540" y="899" type="curve" smooth="yes"/>
      <point x="416" y="1096" type="line"/>
      <point x="-3" y="1096" type="line"/>
      <point x="391" y="552" type="line"/>
      <point x="-13" y="0" type="line"/>
      <point x="402" y="0" type="line"/>
      <point x="442" y="60"/>
      <point x="482" y="119"/>
      <point x="523" y="179" type="curve" smooth="yes"/>
      <point x="550.187" y="219.781"/>
      <point x="577.188" y="260.751"/>
      <point x="604" y="302" type="curve"/>
      <point x="666" y="208" type="line" smooth="yes"/>
      <point x="711" y="139"/>
      <point x="755" y="70"/>
      <point x="801" y="0" type="curve"/>
    </contour>
  </outline>
</glyph>
<glyph name="z" format="1">
  <advance width="1062"/>
  <unicode hex="007A"/>
  <outline>
    <contour>
      <point x="1016" y="0" type="line"/>
      <point x="1016" y="272" type="line"/>
      <point x="488" y="272" type="line"/>
      <point x="1009" y="865" type="line"/>
      <point x="1009" y="1096" type="line"/>
      <point x="74" y="1096" type="line"/>
      <point x="74" y="833" type="line"/>
      <point x="566" y="833" type="line"/>
      <point x="46" y="234" type="line"/>
      <point x="46" y="0" type="line"/>
    </contour>
  </outline>
</glyph>
<glyph name="exclamdown" format="1">
  <advance width="639"/>
  <unicode hex="00A1"/>
  <outline>
    <contour>
      <point x="519" y="1075" type="curve"/>
      <point x="519" y="1162"/>
      <point x="519" y="1248"/>
      <point x="520" y="1336" type="curve"/>
      <point x="478" y="1335"/>
      <point x="439" y="1335"/>
      <point x="398" y="1335" type="curve" smooth="yes"/>
      <point x="343" y="1335" type="line" smooth="yes"/>
      <point x="270" y="1335"/>
      <point x="197" y="1336"/>
      <point x="122" y="1339" type="curve"/>
      <point x="122" y="1075" type="line"/>
      <point x="182" y="1078"/>
      <point x="238" y="1078"/>
      <point x="296" y="1078" type="curve" smooth="yes"/>
      <point x="370" y="1078"/>
      <point x="444" y="1077"/>
    </contour>
    <contour>
      <point x="496" y="-143" type="line"/>
      <point x="468" y="927" type="line"/>
      <point x="141" y="927" type="line"/>
      <point x="112" y="-143" type="line"/>
    </contour>
  </outline>
</glyph>
<glyph name="cent" format="1">
  <advance width="1245"/>
  <unicode hex="00A2"/>
  <outline>
    <contour>
      <point x="687" y="243" type="line"/>
      <point x="564" y="269"/>
      <point x="483" y="370"/>
      <point x="483" y="549" type="curve" smooth="yes"/>
      <point x="483" y="715"/>
      <point x="558" y="836"/>
      <point x="683" y="865" type="curve"/>
    </contour>
    <contour>
      <point x="1128" y="99" type="curve"/>
      <point x="1110" y="329" type="line"/>
      <point x="1085" y="340"/>
      <point x="1059" y="351"/>
      <point x="1034" y="363" type="curve"/>
      <point x="994" y="311"/>
      <point x="921" y="260"/>
      <point x="833" y="241" type="curve"/>
      <point x="833" y="865" type="line"/>
      <point x="917" y="842"/>
      <point x="1001" y="781"/>
      <point x="1034" y="742" type="curve"/>
      <point x="1059" y="753"/>
      <point x="1085" y="765"/>
      <point x="1110" y="776" type="curve"/>
      <point x="1128" y="1005" type="line"/>
      <point x="1092" y="1043"/>
      <point x="981" y="1105"/>
      <point x="837" y="1125" type="curve"/>
      <point x="837" y="1390" type="line"/>
      <point x="683" y="1390" type="line"/>
      <point x="683" y="1130" type="line"/>
      <point x="385" y="1110"/>
      <point x="125" y="950"/>
      <point x="125" y="551" type="curve" smooth="yes"/>
      <point x="125" y="182"/>
      <point x="351" y="-1"/>
      <point x="683" y="-22" type="curve"/>
      <point x="683" y="-309" type="line"/>
      <point x="837" y="-309" type="line"/>
      <point x="837" y="-18" type="line"/>
      <point x="955" y="-4"/>
      <point x="1069" y="51"/>
    </contour>
  </outline>
</glyph>
<glyph name="section" format="1">
  <advance width="1249"/>
  <unicode hex="00A7"/>
  <outline>
    <contour>
      <point x="568" y="748" type="curve"/>
      <point x="734.925" y="713.314"/>
      <point x="769.101" y="655.658"/>
      <point x="816" y="590" type="curve"/>
      <point x="819" y="481"/>
      <point x="773" y="394"/>
      <point x="688" y="372" type="curve"/>
      <point x="523" y="402"/>
      <point x="449" y="483"/>
      <point x="449" y="568" type="curve" smooth="yes"/>
      <point x="449" y="660"/>
      <point x="494" y="724"/>
    </contour>
    <contour>
      <point x="1168" y="589" type="curve" smooth="yes"/>
      <point x="1168" y="777"/>
      <point x="1059" y="880"/>
      <point x="864" y="953" type="curve"/>
      <point x="633" y="1041"/>
      <point x="535" y="1041"/>
      <point x="535" y="1138" type="curve" smooth="yes"/>
      <point x="535" y="1169"/>
      <point x="556" y="1203"/>
      <point x="602" y="1212" type="curve"/>
      <point x="663" y="1234"/>
      <point x="729" y="1223"/>
      <point x="791" y="1188" type="curve"/>
      <point x="870" y="1188"/>
      <point x="988" y="1152"/>
      <point x="1033" y="1130" type="curve"/>
      <point x="1050" y="1130"/>
      <point x="1067" y="1130"/>
      <point x="1084" y="1131" type="curve"/>
      <point x="1084" y="1230"/>
      <point x="1078" y="1322"/>
      <point x="1067" y="1410" type="curve"/>
      <point x="981" y="1467"/>
      <point x="804" y="1502"/>
      <point x="665" y="1502" type="curve" smooth="yes"/>
      <point x="341" y="1502"/>
      <point x="129" y="1337"/>
      <point x="129" y="1145" type="curve"/>
      <point x="129" y="1158"/>
      <point x="123" y="1169"/>
      <point x="107" y="1177" type="curve"/>
      <point x="107" y="1041"/>
      <point x="158" y="943"/>
      <point x="299" y="864" type="curve"/>
      <point x="147" y="780"/>
      <point x="87" y="681"/>
      <point x="87" y="529" type="curve" smooth="yes"/>
      <point x="87" y="295"/>
      <point x="262" y="228"/>
      <point x="491" y="142" type="curve" smooth="yes"/>
      <point x="630" y="90"/>
      <point x="724" y="69"/>
      <point x="724" y="-24" type="curve" smooth="yes"/>
      <point x="724" y="-85"/>
      <point x="687" y="-125"/>
      <point x="612" y="-135" type="curve" smooth="yes"/>
      <point x="563" y="-141"/>
      <point x="514" y="-132"/>
      <point x="464" y="-113" type="curve"/>
      <point x="378" y="-104"/>
      <point x="263" y="-54"/>
      <point x="237" y="-22" type="curve"/>
      <point x="209" y="-23"/>
      <point x="180" y="-23"/>
      <point x="153" y="-23" type="curve"/>
      <point x="153" y="-120"/>
      <point x="159" y="-213"/>
      <point x="171" y="-302" type="curve"/>
      <point x="239" y="-358"/>
      <point x="457" y="-401"/>
      <point x="584" y="-401" type="curve" smooth="yes"/>
      <point x="908" y="-401"/>
      <point x="1135" y="-250"/>
      <point x="1135" y="-21" type="curve" smooth="yes"/>
      <point x="1135" y="55"/>
      <point x="1104" y="114"/>
      <point x="1017" y="164" type="curve"/>
      <point x="1017" y="205"/>
      <point x="1005" y="241"/>
      <point x="962" y="260" type="curve"/>
      <point x="1109" y="345"/>
      <point x="1168" y="447"/>
    </contour>
  </outline>
</glyph>
<glyph name="ordfeminine" format="1">
  <advance width="930"/>
  <unicode hex="00AA"/>
  <outline>
    <contour>
      <point x="450" y="856" type="curve"/>
      <point x="378.738" y="859.563"/>
      <point x="313" y="866.772"/>
      <point x="313" y="940" type="curve" smooth="yes"/>
      <point x="313" y="1030"/>
      <point x="430" y="1031"/>
      <point x="559" y="1039" type="curve"/>
      <point x="559" y="919" type="line"/>
      <point x="535" y="876"/>
      <point x="498" y="857"/>
    </contour>
    <contour>
      <point x="837" y="693" type="line"/>
      <point x="837" y="1234" type="line" smooth="yes"/>
      <point x="837" y="1434"/>
      <point x="687" y="1503"/>
      <point x="409" y="1503" type="curve" smooth="yes"/>
      <point x="280" y="1503"/>
      <point x="149" y="1477"/>
      <point x="97" y="1442" type="curve"/>
      <point x="135" y="1258" type="line"/>
      <point x="140" y="1269"/>
      <point x="252" y="1317"/>
      <point x="361" y="1317" type="curve" smooth="yes"/>
      <point x="495" y="1317"/>
      <point x="559" y="1292"/>
      <point x="559" y="1208" type="curve"/>
      <point x="512" y="1203"/>
      <point x="469" y="1196"/>
      <point x="430" y="1189" type="curve"/>
      <point x="176" y="1170"/>
      <point x="31" y="1123"/>
      <point x="31" y="916" type="curve" smooth="yes"/>
      <point x="31" y="780"/>
      <point x="143" y="674"/>
      <point x="309" y="674" type="curve" smooth="yes"/>
      <point x="448" y="674"/>
      <point x="499" y="722"/>
      <point x="557" y="775" type="curve"/>
      <point x="559" y="775" type="line"/>
      <point x="559" y="693" type="line"/>
    </contour>
  </outline>
</glyph>
<glyph name="degree" format="1">
  <advance width="1012"/>
  <unicode hex="00B0"/>
  <outline>
    <contour>
      <point x="854" y="1138" type="curve" smooth="yes"/>
      <point x="854" y="954"/>
      <point x="698" y="809"/>
      <point x="506" y="809" type="curve" smooth="yes"/>
      <point x="314" y="809"/>
      <point x="159" y="955"/>
      <point x="159" y="1138" type="curve" smooth="yes"/>
      <point x="159" y="1322"/>
      <point x="316" y="1466"/>
      <point x="506" y="1466" type="curve" smooth="yes"/>
      <point x="698" y="1466"/>
      <point x="854" y="1321"/>
    </contour>
    <contour>
      <point x="727" y="1138" type="curve" smooth="yes"/>
      <point x="727" y="1255"/>
      <point x="629" y="1354"/>
      <point x="506" y="1354" type="curve" smooth="yes"/>
      <point x="383" y="1354"/>
      <point x="285" y="1255"/>
      <point x="285" y="1138" type="curve" smooth="yes"/>
      <point x="285" y="1016"/>
      <point x="384" y="922"/>
      <point x="506" y="922" type="curve" smooth="yes"/>
      <point x="630" y="922"/>
      <point x="727" y="1019"/>
    </contour>
  </outline>
</glyph>
<glyph name="paragraph" format="1">
  <advance width="1338"/>
  <unicode hex="00B6"/>
  <outline>
    <contour>
      <point x="1183" y="-377" type="line"/>
      <point x="1183" y="1160" type="line"/>
      <point x="1180" y="1234" type="line"/>
      <point x="1180" y="1479" type="line"/>
      <point x="642" y="1479" type="line" smooth="yes"/>
      <point x="250" y="1479"/>
      <point x="60" y="1306"/>
      <point x="60" y="1052" type="curve" smooth="yes"/>
      <point x="60" y="791"/>
      <point x="254" y="627"/>
      <point x="623" y="620" type="curve"/>
      <point x="623" y="-377" type="line"/>
      <point x="841" y="-377" type="line"/>
      <point x="841" y="1302" type="line"/>
      <point x="975" y="1302" type="line"/>
      <point x="975" y="-377" type="line"/>
    </contour>
  </outline>
</glyph>
<glyph name="cedilla" format="1">
  <advance width="995"/>
  <unicode hex="00B8"/>
  <outline>
    <contour>
      <point x="428" y="-547" type="curve" smooth="yes"/>
      <point x="625" y="-547"/>
      <point x="741" y="-442"/>
      <point x="756" y="-317" type="curve" smooth="yes"/>
      <point x="756" y="-310"/>
      <point x="756" y="-303"/>
      <point x="757" y="-296" type="curve" smooth="yes"/>
      <point x="757" y="-290"/>
      <point x="756" y="-283"/>
      <point x="756" y="-276" type="curve" smooth="yes"/>
      <point x="750" y="-204"/>
      <point x="706" y="-142"/>
      <point x="616" y="-117" type="curve" smooth="yes"/>
      <point x="583" y="-107"/>
      <point x="542" y="-104"/>
      <point x="499" y="-103" type="curve"/>
      <point x="542" y="2" type="line"/>
      <point x="431" y="2" type="line"/>
      <point x="362" y="-195" type="line"/>
      <point x="380" y="-198"/>
      <point x="397" y="-202"/>
      <point x="413" y="-207" type="curve"/>
      <point x="502.057" y="-187.21"/>
      <point x="576" y="-231.563"/>
      <point x="576" y="-298" type="curve" smooth="yes"/>
      <point x="576" y="-358"/>
      <point x="522" y="-408"/>
      <point x="430" y="-408" type="curve" smooth="yes"/>
      <point x="387" y="-408"/>
      <point x="356" y="-391"/>
      <point x="328" y="-374" type="curve"/>
      <point x="303" y="-374"/>
      <point x="279" y="-369"/>
      <point x="255" y="-363" type="curve"/>
      <point x="225" y="-501" type="line"/>
      <point x="279" y="-527"/>
      <point x="374" y="-547"/>
    </contour>
  </outline>
</glyph>
<glyph name="onequarter" format="1">
  <advance width="1477"/>
  <unicode hex="00BC"/>
  <outline>
    <contour>
      <point x="199" y="-35" type="line"/>
      <point x="334" y="-35" type="line"/>
      <point x="1217" y="1493" type="line"/>
      <point x="1081" y="1493" type="line"/>
    </contour>
    <contour>
      <point x="770" y="127" type="line"/>
      <point x="1171" y="127" type="line"/>
      <point x="1171" y="0" type="line"/>
      <point x="1343" y="0" type="line"/>
      <point x="1343" y="127" type="line"/>
      <point x="1411" y="127" type="line"/>
      <point x="1411" y="274" type="line"/>
      <point x="1343" y="274" type="line"/>
      <point x="1343" y="500" type="line"/>
      <point x="1171" y="500" type="line"/>
      <point x="1171" y="274" type="line"/>
      <point x="948" y="274" type="line"/>
      <point x="1260" y="870" type="line"/>
      <point x="1087" y="870" type="line"/>
      <point x="770" y="274" type="line"/>
    </contour>
    <contour>
      <point x="240" y="588" type="line"/>
      <point x="412" y="588" type="line"/>
      <point x="412" y="1462" type="line"/>
      <point x="240" y="1462" type="line"/>
      <point x="104" y="1372" type="line"/>
      <point x="104" y="1200" type="line"/>
      <point x="240" y="1290" type="line"/>
    </contour>
  </outline>
</glyph>
<glyph name="onehalf" format="1">
  <advance width="1477"/>
  <unicode hex="00BD"/>
  <outline>
    <contour>
      <point x="147" y="-35" type="line"/>
      <point x="283" y="-35" type="line"/>
      <point x="1165" y="1493" type="line"/>
      <point x="1030" y="1493" type="line"/>
    </contour>
    <contour>
      <point x="834" y="0" type="line"/>
      <point x="1411" y="0" type="line"/>
      <point x="1411" y="147" type="line"/>
      <point x="1042" y="147" type="line"/>
      <point x="1346" y="467" type="line" smooth="yes"/>
      <point x="1397" y="522"/>
      <point x="1411" y="573"/>
      <point x="1411" y="631" type="curve" smooth="yes"/>
      <point x="1411" y="770"/>
      <point x="1292" y="883"/>
      <point x="1120" y="883" type="curve" smooth="yes"/>
      <point x="961" y="883"/>
      <point x="840" y="772"/>
      <point x="840" y="608" type="curve"/>
      <point x="1012" y="608" type="line"/>
      <point x="1018" y="686"/>
      <point x="1057" y="735"/>
      <point x="1126" y="735" type="curve" smooth="yes"/>
      <point x="1196" y="735"/>
      <point x="1239" y="692"/>
      <point x="1239" y="631" type="curve" smooth="yes"/>
      <point x="1239" y="592"/>
      <point x="1223" y="563"/>
      <point x="1194" y="532" type="curve" smooth="yes"/>
      <point x="834" y="147" type="line"/>
    </contour>
    <contour>
      <point x="240" y="588" type="line"/>
      <point x="412" y="588" type="line"/>
      <point x="412" y="1462" type="line"/>
      <point x="240" y="1462" type="line"/>
      <point x="104" y="1372" type="line"/>
      <point x="104" y="1200" type="line"/>
      <point x="240" y="1290" type="line"/>
    </contour>
  </outline>
</glyph>
<glyph name="AE" format="1">
  <advance width="2052"/>
  <unicode hex="00C6"/>
  <outline>
    <contour>
      <point x="926" y="617" type="line"/>
      <point x="618" y="617" type="line"/>
      <point x="868" y="1208" type="line"/>
      <point x="926" y="1208" type="line"/>
    </contour>
    <contour>
      <point x="1968" y="0" type="line"/>
      <point x="1968" y="286" type="line"/>
      <point x="1310" y="286" type="line"/>
      <point x="1310" y="635" type="line"/>
      <point x="1884" y="635" type="line"/>
      <point x="1884" y="917" type="line"/>
      <point x="1310" y="917" type="line"/>
      <point x="1310" y="1193" type="line"/>
      <point x="1969" y="1193" type="line"/>
      <point x="1969" y="1479" type="line"/>
      <point x="614" y="1479" type="line"/>
      <point x="-30" y="0" type="line"/>
      <point x="366" y="0" type="line"/>
      <point x="504" y="337" type="line"/>
      <point x="926" y="337" type="line"/>
      <point x="926" y="0" type="line"/>
    </contour>
  </outline>
</glyph>
<glyph name="Ecircumflex" format="1">
  <advance width="1262"/>
  <unicode hex="00CA"/>
  <outline>
    <contour>
      <point x="1084" y="1603" type="line"/>
      <point x="779" y="1967" type="line"/>
      <point x="527" y="1967" type="line"/>
      <point x="222" y="1603" type="line"/>
      <point x="496" y="1603" type="line"/>
      <point x="652" y="1791" type="line"/>
      <point x="807" y="1603" type="line"/>
    </contour>
    <contour>
      <point x="1179" y="0" type="line"/>
      <point x="1179" y="286" type="line"/>
      <point x="530" y="286" type="line"/>
      <point x="530" y="635" type="line"/>
      <point x="1094" y="635" type="line"/>
      <point x="1094" y="917" type="line"/>
      <point x="530" y="917" type="line"/>
      <point x="530" y="1193" type="line"/>
      <point x="1180" y="1193" type="line"/>
      <point x="1180" y="1479" type="line"/>
      <point x="147" y="1479" type="line"/>
      <point x="147" y="0" type="line"/>
    </contour>
  </outline>
</glyph>
<glyph name="Edieresis" format="1">
  <advance width="1262"/>
  <unicode hex="00CB"/>
  <outline>
    <contour>
      <point x="564" y="1608" type="curve"/>
      <point x="564" y="1701"/>
      <point x="564" y="1794"/>
      <point x="565" y="1887" type="curve"/>
      <point x="533" y="1886"/>
      <point x="503" y="1886"/>
      <point x="470" y="1886" type="curve" smooth="yes"/>
      <point x="445" y="1886" type="line" smooth="yes"/>
      <point x="386" y="1886"/>
      <point x="327" y="1887"/>
      <point x="265" y="1889" type="curve"/>
      <point x="265" y="1608" type="line"/>
      <point x="306" y="1611"/>
      <point x="343" y="1611"/>
      <point x="382" y="1611" type="curve" smooth="yes"/>
      <point x="442" y="1611"/>
      <point x="502" y="1609"/>
    </contour>
    <contour>
      <point x="1042" y="1608" type="curve"/>
      <point x="1042" y="1887" type="line"/>
      <point x="991" y="1886"/>
      <point x="942" y="1886"/>
      <point x="889" y="1886" type="curve" smooth="yes"/>
      <point x="842" y="1886"/>
      <point x="793" y="1887"/>
      <point x="741" y="1889" type="curve"/>
      <point x="741" y="1608" type="line"/>
      <point x="793" y="1610"/>
      <point x="842" y="1611"/>
      <point x="890" y="1611" type="curve" smooth="yes"/>
      <point x="940" y="1611"/>
      <point x="990" y="1610"/>
    </contour>
    <contour>
      <point x="1179" y="0" type="line"/>
      <point x="1179" y="286" type="line"/>
      <point x="530" y="286" type="line"/>
      <point x="530" y="635" type="line"/>
      <point x="1094" y="635" type="line"/>
      <point x="1094" y="917" type="line"/>
      <point x="530" y="917" type="line"/>
      <point x="530" y="1193" type="line"/>
      <point x="1180" y="1193" type="line"/>
      <point x="1180" y="1479" type="line"/>
      <point x="147" y="1479" type="line"/>
      <point x="147" y="0" type="line"/>
    </contour>
  </outline>
</glyph>
<glyph name="Igrave" format="1">
  <advance width="908"/>
  <unicode hex="00CC"/>
  <outline>
    <contour>
      <point x="710" y="1601" type="line"/>
      <point x="493" y="1967" type="line"/>
      <point x="144" y="1967" type="line"/>
      <point x="460" y="1601" type="line"/>
    </contour>
    <contour>
      <point x="799" y="0" type="line"/>
      <point x="799" y="256" type="line"/>
      <point x="646" y="319" type="line"/>
      <point x="646" y="1129" type="line"/>
      <point x="799" y="1192" type="line"/>
      <point x="799" y="1479" type="line"/>
      <point x="109" y="1479" type="line"/>
      <point x="109" y="1222" type="line"/>
      <point x="262" y="1160" type="line"/>
      <point x="262" y="350" type="line"/>
      <point x="109" y="287" type="line"/>
      <point x="109" y="0" type="line"/>
    </contour>
  </outline>
</glyph>
<glyph name="multiply" format="1">
  <advance width="1229"/>
  <unicode hex="00D7"/>
  <outline>
    <contour>
      <point x="137" y="156" type="line"/>
      <point x="250" y="43" type="line"/>
      <point x="614" y="410" type="line"/>
      <point x="977" y="43" type="line"/>
      <point x="1092" y="156" type="line"/>
      <point x="725" y="518" type="line"/>
      <point x="1092" y="883" type="line"/>
      <point x="977" y="997" type="line"/>
      <point x="614" y="631" type="line"/>
      <point x="250" y="997" type="line"/>
      <point x="137" y="883" type="line"/>
      <point x="504" y="518" type="line"/>
    </contour>
  </outline>
</glyph>
<glyph name="Ugrave" format="1">
  <advance width="1498"/>
  <unicode hex="00D9"/>
  <outline>
    <contour>
      <point x="936" y="1607" type="line"/>
      <point x="719" y="1973" type="line"/>
      <point x="370" y="1973" type="line"/>
      <point x="686" y="1607" type="line"/>
    </contour>
    <contour>
      <point x="1375" y="1479" type="line"/>
      <point x="991" y="1479" type="line"/>
      <point x="991" y="538" type="line" smooth="yes"/>
      <point x="991" y="352"/>
      <point x="902" y="267"/>
      <point x="749" y="267" type="curve" smooth="yes"/>
      <point x="589" y="267"/>
      <point x="507" y="357"/>
      <point x="507" y="537" type="curve" smooth="yes"/>
      <point x="507" y="1479" type="line"/>
      <point x="123" y="1479" type="line"/>
      <point x="123" y="505" type="line" smooth="yes"/>
      <point x="123" y="170"/>
      <point x="370" y="-24"/>
      <point x="749" y="-24" type="curve" smooth="yes"/>
      <point x="1144" y="-24"/>
      <point x="1375" y="177"/>
      <point x="1375" y="506" type="curve" smooth="yes"/>
    </contour>
  </outline>
</glyph>
<glyph name="Yacute" format="1">
  <advance width="1024"/>
  <unicode hex="00DD"/>
  <outline>
    <contour>
      <point x="408" y="0" type="line"/>
      <point x="616" y="0" type="line"/>
      <point x="616" y="600" type="line"/>
      <point x="1055" y="1458" type="line"/>
      <point x="821" y="1458" type="line"/>
      <point x="512" y="811" type="line"/>
      <point x="203" y="1458" type="line"/>
      <point x="-31" y="1458" type="line"/>
      <point x="408" y="600" type="line"/>
    </contour>
    <contour>
      <point x="354" y="1530" type="line"/>
      <point x="526" y="1530" type="line"/>
      <point x="817" y="1829" type="line"/>
      <point x="543" y="1829" type="line"/>
    </contour>
  </outline>
</glyph>
<glyph name="Thorn" format="1">
  <advance width="1214"/>
  <unicode hex="00DE"/>
  <outline>
    <contour>
      <point x="375" y="995" type="line"/>
      <point x="705" y="995" type="line" smooth="yes"/>
      <point x="856" y="995"/>
      <point x="946" y="870"/>
      <point x="946" y="760" type="curve" smooth="yes"/>
      <point x="946" y="649"/>
      <point x="856" y="524"/>
      <point x="707" y="524" type="curve" smooth="yes"/>
      <point x="375" y="524" type="line"/>
    </contour>
    <contour>
      <point x="154" y="0" type="line"/>
      <point x="375" y="0" type="line"/>
      <point x="375" y="315" type="line"/>
      <point x="711" y="315" type="line" smooth="yes"/>
      <point x="1010" y="315"/>
      <point x="1167" y="547"/>
      <point x="1167" y="760" type="curve" smooth="yes"/>
      <point x="1167" y="973"/>
      <point x="1010" y="1204"/>
      <point x="711" y="1204" type="curve" smooth="yes"/>
      <point x="375" y="1204" type="line"/>
      <point x="375" y="1458" type="line"/>
      <point x="154" y="1458" type="line"/>
    </contour>
  </outline>
</glyph>
<glyph name="ae" format="1">
  <advance width="1875"/>
  <unicode hex="00E6"/>
  <outline>
    <contour>
      <point x="1472" y="674" type="curve"/>
      <point x="1085" y="674" type="line"/>
      <point x="1084" y="807"/>
      <point x="1157" y="891"/>
      <point x="1283" y="891" type="curve" smooth="yes"/>
      <point x="1400" y="891"/>
      <point x="1470" y="819"/>
    </contour>
    <contour>
      <point x="763" y="331" type="curve"/>
      <point x="741" y="251"/>
      <point x="671" y="221"/>
      <point x="559" y="221" type="curve" smooth="yes"/>
      <point x="435" y="221"/>
      <point x="390" y="265"/>
      <point x="390" y="344" type="curve" smooth="yes"/>
      <point x="390" y="468"/>
      <point x="544" y="466"/>
      <point x="735" y="478" type="curve"/>
      <point x="738" y="435"/>
      <point x="743" y="387"/>
    </contour>
    <contour>
      <point x="1829" y="459" type="line"/>
      <point x="1829" y="614" type="line" smooth="yes"/>
      <point x="1829" y="935"/>
      <point x="1641" y="1124"/>
      <point x="1306" y="1124" type="curve" smooth="yes"/>
      <point x="1174" y="1124"/>
      <point x="1022" y="1068"/>
      <point x="944" y="1007" type="curve"/>
      <point x="852" y="1077"/>
      <point x="712" y="1122"/>
      <point x="525" y="1122" type="curve" smooth="yes"/>
      <point x="363" y="1122"/>
      <point x="185" y="1081"/>
      <point x="114" y="1031" type="curve"/>
      <point x="174" y="791" type="line"/>
      <point x="186" y="798"/>
      <point x="200" y="803"/>
      <point x="214" y="807" type="curve"/>
      <point x="296" y="846"/>
      <point x="401" y="873"/>
      <point x="479" y="873" type="curve" smooth="yes"/>
      <point x="682" y="873"/>
      <point x="725" y="817"/>
      <point x="725" y="717" type="curve"/>
      <point x="673" y="707"/>
      <point x="625" y="695"/>
      <point x="576" y="684" type="curve"/>
      <point x="506" y="679"/>
      <point x="437" y="674"/>
      <point x="370" y="667" type="curve"/>
      <point x="154" y="636"/>
      <point x="33" y="515"/>
      <point x="33" y="317" type="curve" smooth="yes"/>
      <point x="33" y="99"/>
      <point x="189" y="-24"/>
      <point x="484" y="-24" type="curve" smooth="yes"/>
      <point x="645" y="-24"/>
      <point x="779" y="31"/>
      <point x="868" y="135" type="curve"/>
      <point x="1000" y="9"/>
      <point x="1098" y="-27"/>
      <point x="1347" y="-27" type="curve" smooth="yes"/>
      <point x="1603" y="-27"/>
      <point x="1719" y="35"/>
      <point x="1811" y="96" type="curve"/>
      <point x="1756" y="350" type="line"/>
      <point x="1724" y="328"/>
      <point x="1684" y="315"/>
      <point x="1647" y="315" type="curve"/>
      <point x="1602" y="284"/>
      <point x="1508" y="232"/>
      <point x="1397" y="232" type="curve" smooth="yes"/>
      <point x="1229" y="232"/>
      <point x="1100" y="288"/>
      <point x="1087" y="459" type="curve"/>
    </contour>
  </outline>
</glyph>
<glyph name="igrave" format="1">
  <advance width="614"/>
  <unicode hex="00EC"/>
  <outline>
    <contour>
      <point x="563" y="1239" type="line"/>
      <point x="347" y="1605" type="line"/>
      <point x="-3" y="1605" type="line"/>
      <point x="314" y="1239" type="line"/>
    </contour>
    <contour>
      <point x="486" y="0" type="line"/>
      <point x="486" y="1096" type="line"/>
      <point x="128" y="1096" type="line"/>
      <point x="128" y="0" type="line"/>
    </contour>
  </outline>
</glyph>
<glyph name="iacute" format="1">
  <advance width="614"/>
  <unicode hex="00ED"/>
  <outline>
    <contour>
      <point x="617" y="1605" type="line"/>
      <point x="266" y="1605" type="line"/>
      <point x="51" y="1239" type="line"/>
      <point x="301" y="1239" type="line"/>
    </contour>
    <contour>
      <point x="486" y="0" type="line"/>
      <point x="486" y="1096" type="line"/>
      <point x="128" y="1096" type="line"/>
      <point x="128" y="0" type="line"/>
    </contour>
  </outline>
</glyph>
<glyph name="icircumflex" format="1">
  <advance width="614"/>
  <unicode hex="00EE"/>
  <outline>
    <contour>
      <point x="738" y="1241" type="line"/>
      <point x="432" y="1605" type="line"/>
      <point x="181" y="1605" type="line"/>
      <point x="-124" y="1241" type="line"/>
      <point x="149" y="1241" type="line"/>
      <point x="305" y="1430" type="line"/>
      <point x="461" y="1241" type="line"/>
    </contour>
    <contour>
      <point x="486" y="0" type="line"/>
      <point x="486" y="1096" type="line"/>
      <point x="128" y="1096" type="line"/>
      <point x="128" y="0" type="line"/>
    </contour>
  </outline>
</glyph>
<glyph name="idieresis" format="1">
  <advance width="614"/>
  <unicode hex="00EF"/>
  <outline>
    <contour>
      <point x="218" y="1246" type="curve"/>
      <point x="218" y="1339"/>
      <point x="219" y="1432"/>
      <point x="220" y="1525" type="curve"/>
      <point x="189" y="1524"/>
      <point x="159" y="1524"/>
      <point x="128" y="1524" type="curve" smooth="yes"/>
      <point x="78" y="1524" type="line" smooth="yes"/>
      <point x="26" y="1524"/>
      <point x="-27" y="1525"/>
      <point x="-81" y="1527" type="curve"/>
      <point x="-81" y="1246" type="line"/>
      <point x="-32" y="1249"/>
      <point x="13" y="1250"/>
      <point x="59" y="1250" type="curve" smooth="yes"/>
      <point x="112" y="1250"/>
      <point x="164" y="1248"/>
    </contour>
    <contour>
      <point x="696" y="1246" type="curve"/>
      <point x="696" y="1525" type="line"/>
      <point x="645" y="1524"/>
      <point x="596" y="1524"/>
      <point x="543" y="1524" type="curve" smooth="yes"/>
      <point x="496" y="1524"/>
      <point x="447" y="1525"/>
      <point x="395" y="1527" type="curve"/>
      <point x="395" y="1246" type="line"/>
      <point x="447" y="1248"/>
      <point x="496" y="1250"/>
      <point x="544" y="1250" type="curve" smooth="yes"/>
      <point x="594" y="1250"/>
      <point x="644" y="1248"/>
    </contour>
    <contour>
      <point x="486" y="0" type="line"/>
      <point x="486" y="1096" type="line"/>
      <point x="128" y="1096" type="line"/>
      <point x="128" y="0" type="line"/>
    </contour>
  </outline>
</glyph>
<glyph name="ocircumflex" format="1">
  <advance width="1235"/>
  <unicode hex="00F4"/>
  <outline>
    <contour>
      <point x="1048" y="1241" type="line"/>
      <point x="743" y="1605" type="line"/>
      <point x="491" y="1605" type="line"/>
      <point x="186" y="1241" type="line"/>
      <point x="460" y="1241" type="line"/>
      <point x="616" y="1430" type="line"/>
      <point x="771" y="1241" type="line"/>
    </contour>
    <contour>
      <point x="818" y="545" type="curve" smooth="yes"/>
      <point x="818" y="313"/>
      <point x="750" y="232"/>
      <point x="621" y="232" type="curve" smooth="yes"/>
      <point x="502" y="232"/>
      <point x="416" y="280"/>
      <point x="416" y="546" type="curve" smooth="yes"/>
      <point x="416" y="815"/>
      <point x="509" y="865"/>
      <point x="618" y="865" type="curve" smooth="yes"/>
      <point x="732" y="865"/>
      <point x="818" y="807"/>
    </contour>
    <contour>
      <point x="1185" y="547" type="curve" smooth="yes"/>
      <point x="1185" y="748"/>
      <point x="1136" y="874"/>
      <point x="1037" y="971" type="curve" smooth="yes"/>
      <point x="946" y="1059"/>
      <point x="809" y="1120"/>
      <point x="618" y="1120" type="curve" smooth="yes"/>
      <point x="427" y="1120"/>
      <point x="290" y="1060"/>
      <point x="199" y="973" type="curve"/>
      <point x="100" y="876"/>
      <point x="51" y="750"/>
      <point x="51" y="548" type="curve" smooth="yes"/>
      <point x="51" y="348"/>
      <point x="99" y="220"/>
      <point x="198" y="123" type="curve" smooth="yes"/>
      <point x="289" y="34"/>
      <point x="427" y="-28"/>
      <point x="618" y="-28" type="curve" smooth="yes"/>
      <point x="811" y="-28"/>
      <point x="948" y="34"/>
      <point x="1038" y="123" type="curve" smooth="yes"/>
      <point x="1137" y="222"/>
      <point x="1185" y="348"/>
    </contour>
  </outline>
</glyph>
<glyph name="odieresis" format="1">
  <advance width="1235"/>
  <unicode hex="00F6"/>
  <outline>
    <contour>
      <point x="528" y="1246" type="curve"/>
      <point x="528" y="1339"/>
      <point x="528" y="1432"/>
      <point x="529" y="1525" type="curve"/>
      <point x="497" y="1524"/>
      <point x="466" y="1524"/>
      <point x="434" y="1524" type="curve" smooth="yes"/>
      <point x="409" y="1524" type="line" smooth="yes"/>
      <point x="349" y="1524"/>
      <point x="291" y="1525"/>
      <point x="229" y="1527" type="curve"/>
      <point x="229" y="1246" type="line"/>
      <point x="269" y="1249"/>
      <point x="307" y="1250"/>
      <point x="345" y="1250" type="curve" smooth="yes"/>
      <point x="406" y="1250"/>
      <point x="466" y="1248"/>
    </contour>
    <contour>
      <point x="1005" y="1246" type="curve"/>
      <point x="1005" y="1339"/>
      <point x="1006" y="1432"/>
      <point x="1006" y="1525" type="curve"/>
      <point x="955" y="1524"/>
      <point x="905" y="1524"/>
      <point x="853" y="1524" type="curve" smooth="yes"/>
      <point x="806" y="1524"/>
      <point x="757" y="1525"/>
      <point x="705" y="1527" type="curve"/>
      <point x="705" y="1246" type="line"/>
      <point x="757" y="1248"/>
      <point x="805" y="1250"/>
      <point x="854" y="1250" type="curve" smooth="yes"/>
      <point x="904" y="1250"/>
      <point x="953" y="1248"/>
    </contour>
    <contour>
      <point x="818" y="545" type="curve" smooth="yes"/>
      <point x="818" y="313"/>
      <point x="750" y="232"/>
      <point x="621" y="232" type="curve" smooth="yes"/>
      <point x="502" y="232"/>
      <point x="416" y="280"/>
      <point x="416" y="546" type="curve" smooth="yes"/>
      <point x="416" y="815"/>
      <point x="509" y="865"/>
      <point x="618" y="865" type="curve" smooth="yes"/>
      <point x="732" y="865"/>
      <point x="818" y="807"/>
    </contour>
    <contour>
      <point x="1185" y="547" type="curve" smooth="yes"/>
      <point x="1185" y="748"/>
      <point x="1136" y="874"/>
      <point x="1037" y="971" type="curve" smooth="yes"/>
      <point x="946" y="1059"/>
      <point x="809" y="1120"/>
      <point x="618" y="1120" type="curve" smooth="yes"/>
      <point x="427" y="1120"/>
      <point x="290" y="1060"/>
      <point x="199" y="973" type="curve"/>
      <point x="100" y="876"/>
      <point x="51" y="750"/>
      <point x="51" y="548" type="curve" smooth="yes"/>
      <point x="51" y="348"/>
      <point x="99" y="220"/>
      <point x="198" y="123" type="curve" smooth="yes"/>
      <point x="289" y="34"/>
      <point x="427" y="-28"/>
      <point x="618" y="-28" type="curve" smooth="yes"/>
      <point x="811" y="-28"/>
      <point x="948" y="34"/>
      <point x="1038" y="123" type="curve" smooth="yes"/>
      <point x="1137" y="222"/>
      <point x="1185" y="348"/>
    </contour>
  </outline>
</glyph>
<glyph name="ucircumflex" format="1">
  <advance width="1294"/>
  <unicode hex="00FB"/>
  <outline>
    <contour>
      <point x="1073" y="1241" type="line"/>
      <point x="768" y="1605" type="line"/>
      <point x="517" y="1605" type="line"/>
      <point x="212" y="1241" type="line"/>
      <point x="485" y="1241" type="line"/>
      <point x="641" y="1430" type="line"/>
      <point x="797" y="1241" type="line"/>
    </contour>
    <contour>
      <point x="119" y="1096" type="line"/>
      <point x="119" y="361" type="line" smooth="yes"/>
      <point x="119" y="100"/>
      <point x="300" y="-24"/>
      <point x="477" y="-24" type="curve" smooth="yes"/>
      <point x="609" y="-24"/>
      <point x="738" y="40"/>
      <point x="807" y="160" type="curve" smooth="yes"/>
      <point x="809" y="160" type="line"/>
      <point x="809" y="0" type="line"/>
      <point x="1168" y="0" type="line"/>
      <point x="1168" y="1096" type="line"/>
      <point x="809" y="1096" type="line"/>
      <point x="809" y="469" type="line"/>
      <point x="820" y="446"/>
      <point x="834" y="420"/>
      <point x="847" y="387" type="curve"/>
      <point x="798" y="307"/>
      <point x="732" y="270"/>
      <point x="653" y="270" type="curve" smooth="yes"/>
      <point x="506" y="270"/>
      <point x="481" y="363"/>
      <point x="481" y="544" type="curve" smooth="yes"/>
      <point x="481" y="1096" type="line"/>
    </contour>
  </outline>
</glyph>
<glyph name="udieresis" format="1">
  <advance width="1294"/>
  <unicode hex="00FC"/>
  <outline>
    <contour>
      <point x="554" y="1246" type="curve"/>
      <point x="554" y="1339"/>
      <point x="554" y="1432"/>
      <point x="555" y="1525" type="curve"/>
      <point x="523" y="1524"/>
      <point x="492" y="1524"/>
      <point x="460" y="1524" type="curve" smooth="yes"/>
      <point x="435" y="1524" type="line" smooth="yes"/>
      <point x="375" y="1524"/>
      <point x="317" y="1525"/>
      <point x="254" y="1527" type="curve"/>
      <point x="254" y="1246" type="line"/>
      <point x="295" y="1249"/>
      <point x="333" y="1250"/>
      <point x="371" y="1250" type="curve" smooth="yes"/>
      <point x="432" y="1250"/>
      <point x="491" y="1248"/>
    </contour>
    <contour>
      <point x="1031" y="1246" type="curve"/>
      <point x="1031" y="1525" type="line"/>
      <point x="980" y="1524"/>
      <point x="931" y="1524"/>
      <point x="878" y="1524" type="curve" smooth="yes"/>
      <point x="831" y="1524"/>
      <point x="782" y="1525"/>
      <point x="731" y="1527" type="curve"/>
      <point x="731" y="1246" type="line"/>
      <point x="782" y="1248"/>
      <point x="831" y="1250"/>
      <point x="879" y="1250" type="curve" smooth="yes"/>
      <point x="929" y="1250"/>
      <point x="979" y="1248"/>
    </contour>
    <contour>
      <point x="119" y="1096" type="line"/>
      <point x="119" y="361" type="line" smooth="yes"/>
      <point x="119" y="100"/>
      <point x="300" y="-24"/>
      <point x="477" y="-24" type="curve" smooth="yes"/>
      <point x="609" y="-24"/>
      <point x="738" y="40"/>
      <point x="807" y="160" type="curve" smooth="yes"/>
      <point x="809" y="160" type="line"/>
      <point x="809" y="0" type="line"/>
      <point x="1168" y="0" type="line"/>
      <point x="1168" y="1096" type="line"/>
      <point x="809" y="1096" type="line"/>
      <point x="809" y="469" type="line"/>
      <point x="820" y="446"/>
      <point x="834" y="420"/>
      <point x="847" y="387" type="curve"/>
      <point x="798" y="307"/>
      <point x="732" y="270"/>
      <point x="653" y="270" type="curve" smooth="yes"/>
      <point x="506" y="270"/>
      <point x="481" y="363"/>
      <point x="481" y="544" type="curve" smooth="yes"/>
      <point x="481" y="1096" type="line"/>
    </contour>
  </outline>
</glyph>
<glyph name="oe" format="1">
  <advance width="1979"/>
  <unicode hex="0153"/>
  <outline>
    <contour>
      <point x="1577" y="680" type="curve"/>
      <point x="1185" y="680" type="line"/>
      <point x="1187" y="809"/>
      <point x="1261" y="891"/>
      <point x="1387" y="891" type="curve" smooth="yes"/>
      <point x="1506" y="891"/>
      <point x="1571" y="817"/>
    </contour>
    <contour>
      <point x="823" y="545" type="curve" smooth="yes"/>
      <point x="823" y="330"/>
      <point x="767" y="227"/>
      <point x="623" y="227" type="curve" smooth="yes"/>
      <point x="477" y="227"/>
      <point x="416" y="316"/>
      <point x="416" y="546" type="curve" smooth="yes"/>
      <point x="416" y="828"/>
      <point x="513" y="869"/>
      <point x="620" y="869" type="curve" smooth="yes"/>
      <point x="762" y="869"/>
      <point x="823" y="779"/>
    </contour>
    <contour>
      <point x="1933" y="465" type="line"/>
      <point x="1933" y="614" type="line" smooth="yes"/>
      <point x="1933" y="940"/>
      <point x="1740" y="1124"/>
      <point x="1409" y="1124" type="curve" smooth="yes"/>
      <point x="1255" y="1124"/>
      <point x="1093" y="1064"/>
      <point x="1015" y="985" type="curve"/>
      <point x="926" y="1056"/>
      <point x="782" y="1124"/>
      <point x="621" y="1124" type="curve" smooth="yes"/>
      <point x="456" y="1124"/>
      <point x="333" y="1075"/>
      <point x="245" y="1010" type="curve" smooth="yes"/>
      <point x="116" y="913"/>
      <point x="51" y="773"/>
      <point x="51" y="548" type="curve" smooth="yes"/>
      <point x="51" y="321"/>
      <point x="118" y="180"/>
      <point x="247" y="85" type="curve" smooth="yes"/>
      <point x="334" y="20"/>
      <point x="458" y="-28"/>
      <point x="622" y="-28" type="curve" smooth="yes"/>
      <point x="794" y="-28"/>
      <point x="928" y="34"/>
      <point x="1017" y="121" type="curve"/>
      <point x="1093" y="36"/>
      <point x="1279" y="-25"/>
      <point x="1464" y="-25" type="curve" smooth="yes"/>
      <point x="1697" y="-25"/>
      <point x="1829" y="37"/>
      <point x="1915" y="96" type="curve"/>
      <point x="1860" y="350" type="line"/>
      <point x="1828" y="328"/>
      <point x="1789" y="315"/>
      <point x="1751" y="315" type="curve"/>
      <point x="1707" y="285"/>
      <point x="1611" y="232"/>
      <point x="1499" y="232" type="curve" smooth="yes"/>
      <point x="1325" y="232"/>
      <point x="1200" y="290"/>
      <point x="1187" y="465" type="curve"/>
    </contour>
  </outline>
</glyph>
<glyph name="caron" format="1">
  <advance width="893"/>
  <unicode hex="02C7"/>
  <outline>
    <contour>
      <point x="895" y="1605" type="line"/>
      <point x="622" y="1605" type="line"/>
      <point x="446" y="1410" type="line"/>
      <point x="270" y="1605" type="line"/>
      <point x="-6" y="1605" type="line"/>
      <point x="326" y="1245" type="line"/>
      <point x="564" y="1245" type="line"/>
    </contour>
  </outline>
</glyph>
<glyph name="tilde" format="1">
  <advance width="893"/>
  <unicode hex="02DC"/>
  <outline>
    <contour>
      <point x="886" y="1552" type="curve"/>
      <point x="675" y="1552" type="line"/>
      <point x="668" y="1484"/>
      <point x="641" y="1456"/>
      <point x="584" y="1456" type="curve" smooth="yes"/>
      <point x="559" y="1456"/>
      <point x="511" y="1479"/>
      <point x="476" y="1491" type="curve" smooth="yes"/>
      <point x="420" y="1511"/>
      <point x="364" y="1543"/>
      <point x="297" y="1543" type="curve" smooth="yes"/>
      <point x="127" y="1543"/>
      <point x="20" y="1419"/>
      <point x="9" y="1247" type="curve"/>
      <point x="219" y="1247" type="line"/>
      <point x="222" y="1299"/>
      <point x="232" y="1328"/>
      <point x="281" y="1332" type="curve"/>
      <point x="308" y="1342"/>
      <point x="337" y="1338"/>
      <point x="363" y="1327" type="curve"/>
      <point x="435.677" y="1308.16"/>
      <point x="506.387" y="1256"/>
      <point x="599" y="1256" type="curve" smooth="yes"/>
      <point x="776" y="1256"/>
      <point x="870" y="1359"/>
    </contour>
  </outline>
</glyph>
<glyph name="hungarumlaut" format="1">
  <advance width="892"/>
  <unicode hex="02DD"/>
  <outline>
    <contour>
      <point x="691" y="1605" type="line"/>
      <point x="368" y="1605" type="line"/>
      <point x="187" y="1239" type="line"/>
      <point x="410" y="1239" type="line"/>
    </contour>
    <contour>
      <point x="817" y="1605" type="line"/>
      <point x="495" y="1605" type="line"/>
      <point x="313" y="1239" type="line"/>
      <point x="536" y="1239" type="line"/>
    </contour>
  </outline>
</glyph>
<glyph name="quotesinglbase" format="1">
  <advance width="564"/>
  <unicode hex="201A"/>
  <outline>
    <contour>
      <point x="534" y="258" type="curve"/>
      <point x="201" y="258" type="line"/>
      <point x="96" y="-259" type="line"/>
      <point x="290" y="-245" type="line"/>
      <point x="440" y="-11" type="line"/>
      <point x="471" y="78.6667"/>
      <point x="502.333" y="168.333"/>
    </contour>
  </outline>
</glyph>
<glyph name="dagger" format="1">
  <advance width="1253"/>
  <unicode hex="2020"/>
  <outline>
    <contour>
      <point x="1124" y="868" type="line"/>
      <point x="1124" y="1088" type="line"/>
      <point x="764" y="1088" type="line"/>
      <point x="764" y="1523" type="line"/>
      <point x="492" y="1523" type="line"/>
      <point x="492" y="1090" type="line"/>
      <point x="128" y="1090" type="line"/>
      <point x="128" y="871" type="line"/>
      <point x="488" y="871" type="line"/>
      <point x="488" y="-53" type="line"/>
      <point x="761" y="-53" type="line"/>
      <point x="761" y="868" type="line"/>
    </contour>
  </outline>
</glyph>
<glyph name="daggerdbl" format="1">
  <advance width="1253"/>
  <unicode hex="2021"/>
  <outline>
    <contour>
      <point x="1124" y="353" type="line"/>
      <point x="1124" y="572" type="line"/>
      <point x="759" y="572" type="line"/>
      <point x="759" y="907" type="line"/>
      <point x="1124" y="907" type="line"/>
      <point x="1124" y="1126" type="line"/>
      <point x="764" y="1126" type="line"/>
      <point x="764" y="1523" type="line"/>
      <point x="492" y="1523" type="line"/>
      <point x="492" y="1129" type="line"/>
      <point x="128" y="1129" type="line"/>
      <point x="128" y="910" type="line"/>
      <point x="494" y="910" type="line"/>
      <point x="494" y="575" type="line"/>
      <point x="128" y="575" type="line"/>
      <point x="128" y="355" type="line"/>
      <point x="489" y="355" type="line"/>
      <point x="489" y="-50" type="line"/>
      <point x="761" y="-50" type="line"/>
      <point x="761" y="353" type="line"/>
    </contour>
  </outline>
</glyph>
<glyph name="perthousand" format="1">
  <advance width="2752"/>
  <unicode hex="2030"/>
  <outline>
    <contour>
      <point x="2308" y="175" type="curve" smooth="yes"/>
      <point x="2211" y="175"/>
      <point x="2205" y="257"/>
      <point x="2205" y="368" type="curve" smooth="yes"/>
      <point x="2205" y="497"/>
      <point x="2213" y="575"/>
      <point x="2308" y="575" type="curve" smooth="yes"/>
      <point x="2400" y="575"/>
      <point x="2411" y="500"/>
      <point x="2411" y="382" type="curve"/>
      <point x="2409" y="237"/>
      <point x="2393" y="175"/>
    </contour>
    <contour>
      <point x="2308" y="-4" type="curve" smooth="yes"/>
      <point x="2543" y="-4"/>
      <point x="2647" y="122"/>
      <point x="2647" y="401" type="curve" smooth="yes"/>
      <point x="2647" y="637"/>
      <point x="2525" y="751"/>
      <point x="2308" y="751" type="curve" smooth="yes"/>
      <point x="2077" y="751"/>
      <point x="1964" y="627"/>
      <point x="1964" y="348" type="curve" smooth="yes"/>
      <point x="1964" y="108"/>
      <point x="2091" y="-4"/>
    </contour>
    <contour>
      <point x="1487" y="175" type="curve" smooth="yes"/>
      <point x="1390" y="175"/>
      <point x="1384" y="256"/>
      <point x="1384" y="368" type="curve" smooth="yes"/>
      <point x="1384" y="497"/>
      <point x="1393" y="575"/>
      <point x="1487" y="575" type="curve" smooth="yes"/>
      <point x="1579" y="575"/>
      <point x="1590" y="500"/>
      <point x="1590" y="382" type="curve" smooth="yes"/>
      <point x="1589" y="237"/>
      <point x="1572" y="175"/>
    </contour>
    <contour>
      <point x="1487" y="-4" type="curve" smooth="yes"/>
      <point x="1722" y="-4"/>
      <point x="1826" y="122"/>
      <point x="1826" y="401" type="curve" smooth="yes"/>
      <point x="1826" y="637"/>
      <point x="1704" y="751"/>
      <point x="1487" y="751" type="curve" smooth="yes"/>
      <point x="1256" y="751"/>
      <point x="1143" y="627"/>
      <point x="1143" y="348" type="curve" smooth="yes"/>
      <point x="1143" y="108"/>
      <point x="1270" y="-4"/>
    </contour>
    <contour>
      <point x="440" y="907" type="curve" smooth="yes"/>
      <point x="343" y="907"/>
      <point x="337" y="989"/>
      <point x="337" y="1100" type="curve" smooth="yes"/>
      <point x="337" y="1229"/>
      <point x="345" y="1307"/>
      <point x="440" y="1307" type="curve" smooth="yes"/>
      <point x="531" y="1307"/>
      <point x="543" y="1232"/>
      <point x="543" y="1114" type="curve"/>
      <point x="541" y="969"/>
      <point x="525" y="907"/>
    </contour>
    <contour>
      <point x="440" y="728" type="curve" smooth="yes"/>
      <point x="674" y="728"/>
      <point x="779" y="855"/>
      <point x="779" y="1133" type="curve" smooth="yes"/>
      <point x="779" y="1369"/>
      <point x="657" y="1483"/>
      <point x="440" y="1483" type="curve" smooth="yes"/>
      <point x="209" y="1483"/>
      <point x="96" y="1359"/>
      <point x="96" y="1080" type="curve" smooth="yes"/>
      <point x="96" y="840"/>
      <point x="223" y="728"/>
    </contour>
    <contour>
      <point x="696" y="0" type="line"/>
      <point x="1472" y="1479" type="line"/>
      <point x="1215" y="1479" type="line"/>
      <point x="439" y="0" type="line"/>
    </contour>
  </outline>
</glyph>
<glyph name="fraction" format="1">
  <advance width="769"/>
  <unicode hex="2044"/>
  <outline>
    <contour>
      <point x="940" y="1492" type="line"/>
      <point x="665" y="1492" type="line"/>
      <point x="-183" y="-13" type="line"/>
      <point x="94" y="-13" type="line"/>
    </contour>
  </outline>
</glyph>
<glyph name="partialdiff" format="1">
  <advance width="1171"/>
  <unicode hex="2202"/>
  <outline>
    <contour>
      <point x="792" y="652" type="curve"/>
      <point x="764" y="406"/>
      <point x="657" y="201"/>
      <point x="512" y="201" type="curve" smooth="yes"/>
      <point x="406" y="201"/>
      <point x="347" y="287"/>
      <point x="347" y="429" type="curve" smooth="yes"/>
      <point x="347" y="623"/>
      <point x="460" y="813"/>
      <point x="608" y="813" type="curve" smooth="yes"/>
      <point x="704" y="813"/>
      <point x="767" y="744"/>
    </contour>
    <contour>
      <point x="819" y="871" type="line"/>
      <point x="771" y="949"/>
      <point x="680" y="1016"/>
      <point x="551" y="1016" type="curve" smooth="yes"/>
      <point x="269" y="1016"/>
      <point x="58" y="758"/>
      <point x="58" y="423" type="curve" smooth="yes"/>
      <point x="58" y="171"/>
      <point x="213" y="-17"/>
      <point x="480" y="-17" type="curve" smooth="yes"/>
      <point x="842" y="-17"/>
      <point x="1054" y="284"/>
      <point x="1102" y="756" type="curve"/>
      <point x="1111" y="828"/>
      <point x="1114" y="897"/>
      <point x="1111" y="964" type="curve" smooth="yes"/>
      <point x="1096" y="1338"/>
      <point x="930" y="1525"/>
      <point x="643" y="1542" type="curve" smooth="yes"/>
      <point x="499.503" y="1550.7"/>
      <point x="388.185" y="1514.11"/>
      <point x="304" y="1466" type="curve"/>
      <point x="281" y="1250" type="line"/>
      <point x="360.669" y="1298.61"/>
      <point x="460.158" y="1342.41"/>
      <point x="585" y="1319" type="curve"/>
      <point x="740" y="1294"/>
      <point x="825" y="1148"/>
      <point x="825" y="922" type="curve" smooth="yes"/>
      <point x="825" y="912"/>
      <point x="824" y="890"/>
      <point x="823" y="871" type="curve"/>
    </contour>
  </outline>
</glyph>
<glyph name="uni2215" format="1">
  <advance width="342"/>
  <unicode hex="2215"/>
  <outline>
    <contour>
      <point x="-338" y="-35" type="line"/>
      <point x="-203" y="-35" type="line"/>
      <point x="680" y="1493" type="line"/>
      <point x="545" y="1493" type="line"/>
    </contour>
  </outline>
</glyph>
<glyph name="infinity" format="1">
  <advance width="1594"/>
  <unicode hex="221E"/>
  <outline>
    <contour>
      <point x="890" y="587" type="curve"/>
      <point x="960" y="694"/>
      <point x="1045" y="781"/>
      <point x="1145" y="781" type="curve" smooth="yes"/>
      <point x="1253" y="781"/>
      <point x="1328" y="699"/>
      <point x="1328" y="585" type="curve" smooth="yes"/>
      <point x="1328" y="483"/>
      <point x="1256" y="392"/>
      <point x="1148" y="392" type="curve" smooth="yes"/>
      <point x="1054" y="392"/>
      <point x="979" y="455"/>
    </contour>
    <contour>
      <point x="709" y="589" type="curve"/>
      <point x="634" y="475"/>
      <point x="553" y="399"/>
      <point x="454" y="399" type="curve" smooth="yes"/>
      <point x="344" y="399"/>
      <point x="268" y="481"/>
      <point x="268" y="591" type="curve" smooth="yes"/>
      <point x="268" y="702"/>
      <point x="340" y="787"/>
      <point x="450" y="787" type="curve" smooth="yes"/>
      <point x="554" y="787"/>
      <point x="633" y="710"/>
    </contour>
    <contour>
      <point x="799" y="457" type="curve"/>
      <point x="907" y="291"/>
      <point x="1024" y="216"/>
      <point x="1164" y="216" type="curve" smooth="yes"/>
      <point x="1359" y="216"/>
      <point x="1519" y="377"/>
      <point x="1519" y="587" type="curve" smooth="yes"/>
      <point x="1519" y="806"/>
      <point x="1374" y="954"/>
      <point x="1169" y="955" type="curve" smooth="yes"/>
      <point x="1012" y="955"/>
      <point x="896" y="859"/>
      <point x="801" y="722" type="curve"/>
      <point x="704" y="874"/>
      <point x="586" y="961"/>
      <point x="434" y="961" type="curve" smooth="yes"/>
      <point x="233" y="961"/>
      <point x="78" y="797"/>
      <point x="78" y="594" type="curve" smooth="yes"/>
      <point x="78" y="374"/>
      <point x="229" y="222"/>
      <point x="430" y="222" type="curve" smooth="yes"/>
      <point x="582" y="222"/>
      <point x="698" y="310"/>
    </contour>
  </outline>
</glyph>
<glyph name="notequal" format="1">
  <advance width="1349"/>
  <unicode hex="2260"/>
  <outline>
    <contour>
      <point x="1154" y="288" type="line"/>
      <point x="1154" y="462" type="line"/>
      <point x="711" y="462" type="line"/>
      <point x="836" y="705" type="line"/>
      <point x="1154" y="705" type="line"/>
      <point x="1154" y="880" type="line"/>
      <point x="923" y="880" type="line"/>
      <point x="1050" y="1123" type="line"/>
      <point x="849" y="1136" type="line"/>
      <point x="718" y="880" type="line"/>
      <point x="194" y="880" type="line"/>
      <point x="194" y="705" type="line"/>
      <point x="629" y="705" type="line"/>
      <point x="506" y="462" type="line"/>
      <point x="194" y="462" type="line"/>
      <point x="194" y="288" type="line"/>
      <point x="417" y="288" type="line"/>
      <point x="296" y="54" type="line"/>
      <point x="496" y="41" type="line"/>
      <point x="624" y="288" type="line"/>
    </contour>
  </outline>
</glyph>
<glyph name="lessequal" format="1">
  <advance width="1349"/>
  <unicode hex="2264"/>
  <outline>
    <contour>
      <point x="1154" y="1" type="line"/>
      <point x="1154" y="178" type="line"/>
      <point x="195" y="178" type="line"/>
      <point x="195" y="1" type="line"/>
    </contour>
    <contour>
      <point x="1140" y="234" type="line"/>
      <point x="1140" y="438" type="line"/>
      <point x="437" y="724" type="line"/>
      <point x="437" y="728" type="line"/>
      <point x="1140" y="1022" type="line"/>
      <point x="1140" y="1227" type="line"/>
      <point x="211" y="804" type="line"/>
      <point x="211" y="645" type="line"/>
    </contour>
  </outline>
</glyph>
<glyph name="lozenge" format="1">
  <advance width="1204"/>
  <unicode hex="25CA"/>
  <outline>
    <contour>
      <point x="897" y="714" type="curve"/>
      <point x="815" y="585"/>
      <point x="664" y="288"/>
      <point x="598" y="188" type="curve"/>
      <point x="579" y="223"/>
      <point x="557" y="267"/>
      <point x="536" y="307" type="curve"/>
      <point x="304" y="718" type="line"/>
      <point x="536" y="1122" type="line" smooth="yes"/>
      <point x="556" y="1158"/>
      <point x="581" y="1219"/>
      <point x="602" y="1244" type="curve"/>
      <point x="680" y="1074"/>
      <point x="797" y="886"/>
    </contour>
    <contour>
      <point x="1117" y="716" type="line"/>
      <point x="669" y="1464" type="line"/>
      <point x="532" y="1464" type="line"/>
      <point x="83" y="715" type="line"/>
      <point x="528" y="-32" type="line"/>
      <point x="665" y="-32" type="line"/>
    </contour>
  </outline>
</glyph>
